<svg width="60" height="60" viewBox="0 0 60 60" fill="none" xmlns="http://www.w3.org/2000/svg">
<path d="M20 22.5H40" stroke="white" stroke-width="3.75" stroke-linecap="round"/>
<path d="M20 31.25H33.75" stroke="white" stroke-width="3.75" stroke-linecap="round"/>
<path d="M3.125 26.25C3.125 27.2855 3.96448 28.125 5 28.125C6.03553 28.125 6.875 27.2855 6.875 26.25H3.125ZM7.68378 39.066C7.2875 38.1092 6.19068 37.655 5.23398 38.0513C4.27728 38.4475 3.82295 39.5442 4.21923 40.501L7.68378 39.066ZM34.3302 54.4242L35.6855 52.1348L32.4583 50.2245L31.103 52.5142L34.3302 54.4242ZM24.3145 52.1348L25.6698 54.4242L28.8967 52.5142L27.5415 50.2245L24.3145 52.1348ZM31.103 52.5142C30.6213 53.3282 29.3787 53.3282 28.8967 52.5142L25.6698 54.4242C27.6038 57.6917 32.3962 57.6917 34.3302 54.4242L31.103 52.5142ZM26.25 6.875H33.75V3.125H26.25V6.875ZM53.125 26.25V28.75H56.875V26.25H53.125ZM19.5062 45.604C16.3676 45.5498 14.7231 45.3503 13.434 44.8162L11.9989 48.2808C14.0114 49.1143 16.3034 49.2993 19.4417 49.3533L19.5062 45.604ZM4.21923 40.501C5.6782 44.0232 8.47665 46.8218 11.9989 48.2808L13.434 44.8162C10.8305 43.7378 8.76215 41.6695 7.68378 39.066L4.21923 40.501ZM53.125 28.75C53.125 31.6877 53.124 33.7973 53.0105 35.4618C52.898 37.1095 52.6815 38.184 52.3162 39.066L55.7808 40.501C56.367 39.086 56.6263 37.5558 56.7518 35.717C56.876 33.8953 56.875 31.6365 56.875 28.75H53.125ZM40.5583 49.3533C43.6965 49.2993 45.9887 49.1143 48.001 48.2808L46.566 44.8162C45.277 45.3503 43.6323 45.5498 40.4938 45.604L40.5583 49.3533ZM52.3162 39.066C51.2378 41.6695 49.1695 43.7378 46.566 44.8162L48.001 48.2808C51.5232 46.8218 54.3218 44.0232 55.7808 40.501L52.3162 39.066ZM33.75 6.875C37.878 6.875 40.8425 6.87698 43.1548 7.09683C45.4393 7.31403 46.8927 7.73058 48.0515 8.4407L50.011 5.2433C48.1637 4.11143 46.0685 3.60698 43.5098 3.36368C40.9788 3.12303 37.8055 3.125 33.75 3.125V6.875ZM56.875 26.25C56.875 22.1945 56.877 19.0212 56.6362 16.4903C56.393 13.9314 55.8885 11.8361 54.7568 9.98908L51.5592 11.9485C52.2695 13.1073 52.686 14.5609 52.9033 16.8452C53.123 19.1575 53.125 22.1219 53.125 26.25H56.875ZM48.0515 8.4407C49.4813 9.3168 50.6832 10.5188 51.5592 11.9485L54.7568 9.98908C53.5715 8.05485 51.9453 6.4286 50.011 5.2433L48.0515 8.4407ZM26.25 3.125C22.1945 3.125 19.0212 3.12303 16.4903 3.36368C13.9314 3.60698 11.8361 4.11143 9.98908 5.2433L11.9485 8.4407C13.1073 7.73058 14.5609 7.31403 16.8452 7.09683C19.1575 6.87698 22.1219 6.875 26.25 6.875V3.125ZM6.875 26.25C6.875 22.1219 6.87698 19.1575 7.09683 16.8452C7.31403 14.5609 7.73058 13.1073 8.4407 11.9485L5.2433 9.98908C4.11143 11.8361 3.60698 13.9314 3.36368 16.4903C3.12303 19.0212 3.125 22.1945 3.125 26.25H6.875ZM9.98908 5.2433C8.05485 6.4286 6.4286 8.05485 5.2433 9.98908L8.4407 11.9485C9.3168 10.5188 10.5188 9.3168 11.9485 8.4407L9.98908 5.2433ZM27.5415 50.2245C27.034 49.367 26.5885 48.6103 26.1553 48.0158C25.6987 47.3898 25.1755 46.826 24.4496 46.4038L22.5643 49.6455C22.6828 49.7142 22.8443 49.84 23.1246 50.2245C23.4281 50.641 23.7709 51.2163 24.3145 52.1348L27.5415 50.2245ZM19.4417 49.3533C20.5394 49.3722 21.2347 49.3863 21.7647 49.4448C22.26 49.4998 22.4519 49.58 22.5643 49.6455L24.4496 46.4038C23.7177 45.978 22.9562 45.8038 22.1774 45.7175C21.4335 45.6353 20.5344 45.6217 19.5062 45.604L19.4417 49.3533ZM35.6855 52.1348C36.229 51.2163 36.5718 50.641 36.8753 50.2245C37.1555 49.84 37.317 49.7142 37.4355 49.6455L35.5503 46.4038C34.8245 46.826 34.301 47.3898 33.8447 48.0158C33.4115 48.6103 32.966 49.367 32.4583 50.2245L35.6855 52.1348ZM40.4938 45.604C39.4655 45.6217 38.5665 45.6353 37.8225 45.7175C37.0438 45.8038 36.2822 45.978 35.5503 46.4038L37.4355 49.6455C37.548 49.58 37.74 49.4998 38.2352 49.4448C38.7653 49.3863 39.4605 49.3722 40.5583 49.3533L40.4938 45.604Z" fill="white"/>
</svg>
