<svg width="28" height="28" viewBox="0 0 28 28" fill="none" xmlns="http://www.w3.org/2000/svg">
<path d="M14.2203 13.9998C14.8451 13.9998 15.3517 13.4775 15.3517 12.8332C15.3517 12.1888 14.8451 11.6665 14.2203 11.6665C13.5954 11.6665 13.0889 12.1888 13.0889 12.8332C13.0889 13.4775 13.5954 13.9998 14.2203 13.9998Z" fill="#0E6D99"/>
<path d="M9.69489 13.9998C10.3198 13.9998 10.8263 13.4775 10.8263 12.8332C10.8263 12.1888 10.3198 11.6665 9.69489 11.6665C9.07003 11.6665 8.56348 12.1888 8.56348 12.8332C8.56348 13.4775 9.07003 13.9998 9.69489 13.9998Z" fill="#0E6D99"/>
<path d="M18.7466 13.9998C19.3715 13.9998 19.8781 13.4775 19.8781 12.8332C19.8781 12.1888 19.3715 11.6665 18.7466 11.6665C18.1218 11.6665 17.6152 12.1888 17.6152 12.8332C17.6152 13.4775 18.1218 13.9998 18.7466 13.9998Z" fill="#0E6D99"/>
<path d="M4.09432 25.515C4.33112 25.6157 4.58489 25.6673 4.84105 25.6667C5.09368 25.668 5.344 25.617 5.57721 25.5168C5.81041 25.4166 6.02175 25.2692 6.19875 25.0833L9.02728 22.1667H19.8775C21.3779 22.1667 22.8168 21.5521 23.8777 20.4581C24.9386 19.3642 25.5346 17.8804 25.5346 16.3333V9.33333C25.5346 7.78624 24.9386 6.30251 23.8777 5.20854C22.8168 4.11458 21.3779 3.5 19.8775 3.5H8.5634C7.06305 3.5 5.62416 4.11458 4.56325 5.20854C3.50234 6.30251 2.90633 7.78624 2.90633 9.33333V23.6717C2.90275 24.0662 3.01405 24.4528 3.22584 24.7814C3.43763 25.1101 3.74016 25.3656 4.09432 25.515ZM5.16916 9.33333C5.16916 8.40508 5.52677 7.51484 6.16331 6.85846C6.79986 6.20208 7.66319 5.83333 8.5634 5.83333H19.8775C20.7777 5.83333 21.6411 6.20208 22.2776 6.85846C22.9142 7.51484 23.2718 8.40508 23.2718 9.33333V16.3333C23.2718 17.2616 22.9142 18.1518 22.2776 18.8082C21.6411 19.4646 20.7777 19.8333 19.8775 19.8333H8.5634C8.4145 19.8324 8.26689 19.8619 8.12905 19.9199C7.9912 19.978 7.86582 20.0635 7.7601 20.1717L5.16916 22.855V9.33333Z" fill="#0E6D99"/>
</svg>
