<svg width="75" height="75" viewBox="0 0 75 75" fill="none" xmlns="http://www.w3.org/2000/svg">
<ellipse cx="37.155" cy="37.4591" rx="37.155" ry="37.4591" fill="#FE8C00" fill-opacity="0.15"/>
<path d="M36.1134 17.479L15.5625 25.9565L36.1134 34.4341L56.6643 25.9565L36.1134 17.479Z" fill="#FE8C00" fill-opacity="0.6"/>
<path d="M27.7723 20.9377L23.9043 22.4976L44.4552 31.0091L48.2896 29.4153L27.7723 20.9377Z" fill="white"/>
<path d="M15.5625 25.9565V49.3207L36.1134 57.7982V34.4341L15.5625 25.9565Z" fill="#FE8C00"/>
<path d="M56.6652 25.9565V49.3207L36.1143 57.7982V34.4341L56.6652 25.9565Z" fill="#FE8C00" fill-opacity="0.6"/>
<path opacity="0.1" d="M56.6639 37.8927C56.0584 37.757 55.453 37.6892 54.814 37.6892C49.836 37.6892 45.7998 41.7584 45.7998 46.7771C45.7998 49.1169 46.6743 51.2533 48.1206 52.8471L56.6639 49.3204V37.8927Z" fill="#0C1E5B"/>
<path d="M44.4551 31.0091V40.8091L48.2895 39.2153V29.4153L44.4551 31.0091Z" fill="white"/>
<path d="M58.481 55.1868C63.4593 55.1868 67.4951 51.118 67.4951 46.0989C67.4951 41.0798 63.4593 37.011 58.481 37.011C53.5026 37.011 49.4668 41.0798 49.4668 46.0989C49.4668 51.118 53.5026 55.1868 58.481 55.1868Z" fill="#FF5B5B"/>
<path d="M57.5389 49.6258C57.2698 49.6258 57.0344 49.524 56.8326 49.3206L53.9736 46.4382C53.57 46.0313 53.57 45.387 53.9736 45.014C54.3772 44.6071 55.0163 44.6071 55.3863 45.014L57.5389 47.1842L61.5751 43.115C61.9787 42.7081 62.6178 42.7081 62.9878 43.115C63.3914 43.5219 63.3914 44.1662 62.9878 44.5392L58.2452 49.3206C58.0434 49.524 57.808 49.6258 57.5389 49.6258Z" fill="white"/>
<path d="M20.9105 45.6244L20.0024 41.5552L17.917 44.3019L19.0606 44.8106V47.7946L20.9105 48.6424V45.6244Z" fill="#F2F5F3"/>
</svg>
