<svg width="75" height="75" viewBox="0 0 75 75" fill="none" xmlns="http://www.w3.org/2000/svg">
<ellipse cx="37.155" cy="37.4587" rx="37.155" ry="37.4587" fill="#FE8C00" fill-opacity="0.15"/>
<path d="M16.4404 55.651C19.2317 55.651 21.5123 53.3489 21.5123 50.5314V17.5457H51.1265V50.5314C51.1265 53.3489 48.8459 55.651 46.0547 55.651" fill="#FE8C00" fill-opacity="0.6"/>
<path d="M40.9834 50.5314V46.6487H11.3691V50.5314C11.3691 53.3489 13.6498 55.651 16.441 55.651H46.0552C43.264 55.651 40.9834 53.3489 40.9834 50.5314Z" fill="#FE8C00"/>
<path d="M30.6006 24.1077H26.8223V25.757H30.6006V24.1077Z" fill="white"/>
<path d="M45.1348 24.1077H33.5273V25.757H45.1348V24.1077Z" fill="#F7C604"/>
<path d="M30.6006 29.949H26.8223V31.5983H30.6006V29.949Z" fill="white"/>
<path d="M45.1348 29.949H33.5273V31.5983H45.1348V29.949Z" fill="#F7C604"/>
<path d="M30.6006 35.79H26.8223V37.4393H30.6006V35.79Z" fill="white"/>
<path d="M45.1348 35.79H33.5273V37.4393H45.1348V35.79Z" fill="#F7C604"/>
<path d="M30.6006 41.6313H26.8223V43.2806H30.6006V41.6313Z" fill="white"/>
<path d="M45.1348 41.6313H33.5273V43.2806H45.1348V41.6313Z" fill="#F7C604"/>
<path opacity="0.1" d="M51.1271 41.9063V22.2867C50.7186 22.218 50.2761 22.1836 49.8336 22.1836C44.4213 22.1836 40.0303 26.6161 40.0303 32.0793C40.0303 37.5426 44.4213 41.975 49.8336 41.975C50.2761 42.0094 50.7186 41.975 51.1271 41.9063Z" fill="#0C1E5B"/>
<path d="M53.2712 40.0167C58.6855 40.0167 63.0746 35.5862 63.0746 30.1209C63.0746 24.6556 58.6855 20.2251 53.2712 20.2251C47.8569 20.2251 43.4678 24.6556 43.4678 30.1209C43.4678 35.5862 47.8569 40.0167 53.2712 40.0167Z" fill="#FF5B5B"/>
<path d="M55.0064 30.8082V24.6577H51.5344V30.8082H49.2197L53.2704 35.5842L57.3211 30.8082H55.0064Z" fill="white"/>
</svg>
