<svg width="75" height="75" viewBox="0 0 75 75" fill="none" xmlns="http://www.w3.org/2000/svg">
<ellipse cx="37.155" cy="37.4591" rx="37.155" ry="37.4591" fill="#FE8C00" fill-opacity="0.15"/>
<path d="M36.1134 17.479L15.5625 25.9565L36.1134 34.4341L56.6643 25.9565L36.1134 17.479Z" fill="#FE8C00" fill-opacity="0.6"/>
<path d="M27.7723 20.9377L23.9043 22.4976L44.4552 31.0091L48.2896 29.4153L27.7723 20.9377Z" fill="white"/>
<path d="M15.5625 25.9565V49.3207L36.1134 57.7982V34.4341L15.5625 25.9565Z" fill="#FE8C00"/>
<path d="M56.6652 25.9565V49.3207L36.1143 57.7982V34.4341L56.6652 25.9565Z" fill="#FE8C00" fill-opacity="0.6"/>
<path opacity="0.1" d="M56.6639 37.8927C56.0584 37.757 55.453 37.6892 54.814 37.6892C49.836 37.6892 45.7998 41.7584 45.7998 46.7771C45.7998 49.1169 46.6743 51.2533 48.1206 52.8471L56.6639 49.3204V37.8927V37.8927Z" fill="#0C1E5B"/>
<path d="M44.4551 31.0091V40.8091L48.2895 39.2153V29.4153L44.4551 31.0091Z" fill="white"/>
<path d="M58.481 55.1868C63.4593 55.1868 67.4951 51.118 67.4951 46.0989C67.4951 41.0798 63.4593 37.011 58.481 37.011C53.5026 37.011 49.4668 41.0798 49.4668 46.0989C49.4668 51.118 53.5026 55.1868 58.481 55.1868Z" fill="#FF5B5B"/>
<path d="M63.0014 41.9665C62.9453 41.7199 62.6316 41.6303 62.4523 41.8096L61.892 42.3699C59.7964 40.4873 56.5803 40.5433 54.5632 42.5492C52.4789 44.6335 52.4789 48.0177 54.5632 50.102C54.6305 50.1693 54.6977 50.2253 54.7537 50.2925C54.8658 50.3934 55.0003 50.4382 55.1347 50.4382C55.2916 50.4382 55.4485 50.371 55.5606 50.2477C55.7735 50.0124 55.7511 49.6538 55.5157 49.4409L55.3589 49.2952C53.734 47.6591 53.734 44.9921 55.3701 43.356C56.9389 41.7872 59.4378 41.7423 61.0851 43.1767L60.4688 43.793C60.2895 43.9723 60.3792 44.2861 60.6257 44.3421L63.2479 44.9809C63.4832 45.0369 63.7073 44.824 63.6513 44.5775L63.0014 41.9665Z" fill="white" stroke="white" stroke-width="0.5"/>
<path d="M60.211 46.841L58.8998 46.0118V43.9162C58.8998 43.6025 58.6421 43.3447 58.3283 43.3447C58.0146 43.3447 57.7568 43.6025 57.7568 43.9162V46.3143C57.7568 46.5048 57.8577 46.6953 58.0258 46.7962L59.5946 47.7935C59.6843 47.8495 59.7963 47.8832 59.8972 47.8832C60.0877 47.8832 60.267 47.7935 60.379 47.6142C60.5583 47.3565 60.4799 47.0091 60.211 46.841Z" fill="white" stroke="white" stroke-width="0.5"/>
<path d="M57.2408 50.3713L57.0278 50.3041C56.7253 50.2032 56.4003 50.3713 56.3107 50.6627C56.2098 50.9652 56.3779 51.2902 56.6692 51.3798C56.7589 51.4135 56.8485 51.4359 56.9382 51.4583C56.983 51.4695 57.039 51.4807 57.0839 51.4807C57.3304 51.4807 57.5657 51.3126 57.633 51.0549C57.7226 50.7635 57.5433 50.4497 57.2408 50.3713Z" fill="white" stroke="white" stroke-width="0.5"/>
<path d="M59.1797 50.4271L58.9556 50.4607C58.6418 50.5055 58.4289 50.7969 58.4737 51.1106C58.5186 51.3908 58.7651 51.6037 59.034 51.6037C59.0564 51.6037 59.0901 51.6037 59.1237 51.5925C59.2133 51.5813 59.3142 51.5589 59.4038 51.5477C59.7176 51.4804 59.9081 51.1891 59.8521 50.8753C59.7848 50.5728 59.4823 50.371 59.1797 50.4271Z" fill="white" stroke="white" stroke-width="0.5"/>
<path d="M60.927 49.6205L60.7477 49.7549C60.4899 49.9342 60.4339 50.2928 60.6132 50.5506C60.7252 50.7075 60.9045 50.7971 61.0838 50.7971C61.1959 50.7971 61.308 50.7635 61.4088 50.6962C61.4873 50.6402 61.5657 50.5842 61.6329 50.5282C61.8795 50.3377 61.9243 49.9679 61.7226 49.7213C61.5433 49.4636 61.1735 49.43 60.927 49.6205Z" fill="white" stroke="white" stroke-width="0.5"/>
<path d="M20.9105 45.6244L20.0024 41.5552L17.917 44.3019L19.0606 44.8106V47.7946L20.9105 48.6424V45.6244Z" fill="#F2F5F3"/>
</svg>
