<svg width="75" height="75" viewBox="0 0 75 75" fill="none" xmlns="http://www.w3.org/2000/svg">
<ellipse cx="37.155" cy="37.4587" rx="37.155" ry="37.4587" fill="#FE8C00" fill-opacity="0.15"/>
<path d="M16.4404 55.6513C19.2317 55.6513 21.5123 53.3491 21.5123 50.5316V17.5459H51.1265V50.5316C51.1265 53.3491 48.8459 55.6513 46.0547 55.6513" fill="#FE8C00" fill-opacity="0.6"/>
<path d="M40.9834 50.5311V46.6484H11.3691V50.5311C11.3691 53.3487 13.6498 55.6508 16.441 55.6508H46.0552C43.264 55.6508 40.9834 53.3487 40.9834 50.5311Z" fill="#FE8C00"/>
<path d="M30.6006 24.1084H26.8223V25.7577H30.6006V24.1084Z" fill="white"/>
<path d="M45.1348 24.1084H33.5273V25.7577H45.1348V24.1084Z" fill="#F7C604"/>
<path d="M30.6006 29.9492H26.8223V31.5985H30.6006V29.9492Z" fill="white"/>
<path d="M45.1348 29.9492H33.5273V31.5985H45.1348V29.9492Z" fill="#F7C604"/>
<path d="M30.6006 35.79H26.8223V37.4393H30.6006V35.79Z" fill="white"/>
<path d="M45.1348 35.79H33.5273V37.4393H45.1348V35.79Z" fill="#F7C604"/>
<path d="M30.6006 41.6318H26.8223V43.2811H30.6006V41.6318Z" fill="white"/>
<path d="M45.1348 41.6318H33.5273V43.2811H45.1348V41.6318Z" fill="#F7C604"/>
<path opacity="0.1" d="M51.1271 41.9063V22.2867C50.7186 22.218 50.2761 22.1836 49.8336 22.1836C44.4213 22.1836 40.0303 26.6161 40.0303 32.0793C40.0303 37.5426 44.4213 41.975 49.8336 41.975C50.2761 42.0094 50.7186 41.975 51.1271 41.9063Z" fill="#0C1E5B"/>
<path d="M53.2712 40.0172C58.6855 40.0172 63.0746 35.5867 63.0746 30.1214C63.0746 24.6561 58.6855 20.2256 53.2712 20.2256C47.8569 20.2256 43.4678 24.6561 43.4678 30.1214C43.4678 35.5867 47.8569 40.0172 53.2712 40.0172Z" fill="#FF5B5B"/>
<path d="M53.0943 24.437L53.1405 35.8007M47.4355 30.0957L58.7992 30.142" stroke="white" stroke-width="4"/>
<path d="M53.0943 24.437L53.1405 35.8007M47.4355 30.0957L58.7992 30.142" stroke="white" stroke-width="4"/>
</svg>
