<svg width="28" height="28" viewBox="0 0 28 28" fill="none" xmlns="http://www.w3.org/2000/svg">
<path d="M4.92243 23.3333H11.7109C11.7109 23.9522 11.9493 24.5457 12.3737 24.9832C12.798 25.4208 13.3736 25.6667 13.9737 25.6667C14.5739 25.6667 15.1494 25.4208 15.5738 24.9832C15.9982 24.5457 16.2366 23.9522 16.2366 23.3333H23.0251C23.3251 23.3333 23.6129 23.2104 23.8251 22.9916C24.0373 22.7728 24.1565 22.4761 24.1565 22.1667C24.1565 21.8572 24.0373 21.5605 23.8251 21.3417C23.6129 21.1229 23.3251 21 23.0251 21V12.8333C23.0251 10.358 22.0714 7.98401 20.374 6.23367C18.6765 4.48333 16.3743 3.5 13.9737 3.5C11.5732 3.5 9.27095 4.48333 7.5735 6.23367C5.87605 7.98401 4.92243 10.358 4.92243 12.8333V21C4.62236 21 4.33458 21.1229 4.1224 21.3417C3.91022 21.5605 3.79102 21.8572 3.79102 22.1667C3.79102 22.4761 3.91022 22.7728 4.1224 22.9916C4.33458 23.2104 4.62236 23.3333 4.92243 23.3333ZM7.18526 12.8333C7.18526 10.9768 7.90047 9.19634 9.17356 7.88359C10.4466 6.57083 12.1733 5.83333 13.9737 5.83333C15.7742 5.83333 17.5008 6.57083 18.7739 7.88359C20.047 9.19634 20.7622 10.9768 20.7622 12.8333V21H7.18526V12.8333Z" fill="#0E6D99"/>
</svg>
