<svg width="24" height="25" viewBox="0 0 24 25" fill="none" xmlns="http://www.w3.org/2000/svg">
<path d="M20 21.1819C20 19.7863 20 19.0885 19.8278 18.5207C19.44 17.2423 18.4395 16.2419 17.1611 15.8541C16.5933 15.6819 15.8956 15.6819 14.5 15.6819H9.5C8.10444 15.6819 7.40665 15.6819 6.83886 15.8541C5.56045 16.2419 4.56004 17.2423 4.17224 18.5207C4 19.0885 4 19.7863 4 21.1819M16.5 7.68188C16.5 10.1672 14.4853 12.1819 12 12.1819C9.51472 12.1819 7.5 10.1672 7.5 7.68188C7.5 5.1966 9.51472 3.18188 12 3.18188C14.4853 3.18188 16.5 5.1966 16.5 7.68188Z" stroke="black" stroke-width="1.5" stroke-linecap="round" stroke-linejoin="round"/>
</svg>
