<svg width="23" height="24" viewBox="0 0 23 24" fill="none" xmlns="http://www.w3.org/2000/svg">
<path d="M22.6532 22.7761L17.2739 16.9437C18.7169 15.145 19.5905 12.7982 19.5905 10.2333C19.5905 4.58714 15.3548 0 10.1522 0C4.94467 0 0.713867 4.59246 0.713867 10.2333C0.713867 15.8741 4.94957 20.4665 10.1522 20.4665C12.5179 20.4665 14.6824 19.5193 16.3413 17.9548L21.7206 23.7871C21.8482 23.9255 22.02 24 22.1869 24C22.3538 24 22.5256 23.9308 22.6532 23.7871C22.9084 23.5104 22.9084 23.0528 22.6532 22.7761ZM2.03415 10.2333C2.03415 5.38004 5.67598 1.43681 10.1473 1.43681C14.6235 1.43681 18.2604 5.38537 18.2604 10.2333C18.2604 15.0812 14.6235 19.035 10.1473 19.035C5.67598 19.035 2.03415 15.0865 2.03415 10.2333Z" fill="#A4A4A4"/>
</svg>
