<svg xmlns="http://www.w3.org/2000/svg" xmlns:xlink="http://www.w3.org/1999/xlink" width="1587" zoomAndPan="magnify" viewBox="0 0 1190.25 1683.749945" height="2245" preserveAspectRatio="xMidYMid meet" version="1.0"><defs><clipPath id="a67c8a56dc"><path d="M 856 768 L 1189.21875 768 L 1189.21875 919 L 856 919 Z M 856 768 " clip-rule="nonzero"/></clipPath><clipPath id="e196b793c0"><path d="M 854.261719 547.804688 L 902 547.804688 L 902 1683 L 854.261719 1683 Z M 854.261719 547.804688 " clip-rule="nonzero"/></clipPath><clipPath id="b971c895a0"><path d="M 707 1615 L 1049 1615 L 1049 1683.09375 L 707 1683.09375 Z M 707 1615 " clip-rule="nonzero"/></clipPath><clipPath id="a102c1ae56"><path d="M 375 1603 L 524.871094 1603 L 524.871094 1683 L 375 1683 Z M 375 1603 " clip-rule="nonzero"/></clipPath></defs><g clip-path="url(#a67c8a56dc)"><path fill="#465a64" d="M 1090.433594 768.09375 L 879.996094 768.09375 C 866.933594 768.09375 856.351562 774.886719 856.351562 783.273438 L 856.351562 903.617188 C 856.351562 912 866.933594 918.796875 879.996094 918.796875 L 1090.433594 918.796875 C 1098.71875 918.796875 1105.992188 916.066406 1110.226562 911.929688 L 1184.242188 850.414062 L 1184.300781 850.4375 C 1191.671875 844.316406 1190.613281 835.714844 1182.28125 830.398438 L 1108.542969 773.601562 L 1090.433594 783.273438 L 1108.589844 773.554688 C 1103.925781 769.957031 1097.203125 768.09375 1090.433594 768.09375 " fill-opacity="1" fill-rule="nonzero"/></g><path fill="#465a64" d="M 667.753906 618.746094 L 878.191406 618.746094 C 891.25 618.746094 901.832031 625.542969 901.832031 633.929688 L 901.832031 754.273438 C 901.832031 762.65625 891.25 769.453125 878.191406 769.453125 L 667.753906 769.453125 C 659.464844 769.453125 652.179688 766.722656 647.957031 762.582031 L 573.945312 701.070312 L 573.882812 701.09375 C 566.511719 694.972656 567.570312 686.382812 575.90625 681.066406 L 649.640625 624.269531 L 667.753906 633.929688 L 649.59375 624.207031 C 654.261719 620.613281 660.980469 618.746094 667.753906 618.746094 " fill-opacity="1" fill-rule="nonzero"/><path fill="#f45223" d="M 96.429688 760.910156 L 70.371094 771.003906 C 68.832031 767.261719 67.929688 765.011719 67.605469 764.171875 C 64.335938 755.726562 63.035156 748.246094 63.722656 741.714844 C 64.394531 735.160156 67.652344 726.871094 73.378906 716.792969 C 79.113281 706.746094 82.40625 700.335938 83.1875 697.582031 C 84.453125 693.277344 84.285156 689.089844 82.71875 685.085938 C 80.566406 679.503906 76.480469 675.582031 70.46875 673.296875 C 64.453125 671.046875 57.683594 671.382812 50.121094 674.320312 C 42.820312 677.132812 37.53125 681.597656 34.210938 687.660156 C 30.941406 693.695312 30.015625 701.359375 31.457031 710.585938 L 3.847656 717.511719 C -0.144531 705.015625 1.046875 692.636719 7.371094 680.394531 C 13.746094 668.136719 24.722656 658.984375 40.429688 652.910156 C 56.890625 646.535156 71.679688 645.777344 84.789062 650.609375 C 97.859375 655.46875 106.625 663.589844 111.0625 675.066406 C 113.503906 681.390625 114.023438 688.089844 112.652344 695.128906 C 111.242188 702.164062 106.589844 712.847656 98.628906 727.113281 C 94.515625 734.519531 92.316406 740.03125 92.039062 743.675781 C 91.761719 747.308594 93.21875 753.046875 96.429688 760.910156 Z M 85.316406 809.636719 L 114.035156 798.523438 L 102.910156 769.800781 L 74.207031 780.914062 L 85.316406 809.636719 " fill-opacity="1" fill-rule="nonzero"/><path fill="#f45223" d="M 148.773438 633.890625 L 128.765625 636.308594 C 128.367188 633.421875 128.128906 631.679688 128.054688 631.039062 C 127.273438 624.558594 127.695312 619.085938 129.339844 614.644531 C 130.964844 610.183594 134.71875 604.976562 140.511719 598.949219 C 146.320312 592.945312 149.761719 589.050781 150.792969 587.269531 C 152.441406 584.492188 153.066406 581.53125 152.695312 578.453125 C 152.175781 574.160156 150.023438 570.695312 146.226562 568.023438 C 142.425781 565.390625 137.625 564.414062 131.820312 565.113281 C 126.214844 565.785156 121.71875 567.964844 118.328125 571.609375 C 114.960938 575.253906 112.953125 580.4375 112.324219 587.148438 L 91.789062 587.078125 C 91.222656 577.621094 94.253906 569.179688 100.867188 561.757812 C 107.492188 554.324219 116.800781 549.886719 128.847656 548.429688 C 141.5 546.902344 151.972656 549.007812 160.269531 554.722656 C 168.542969 560.445312 173.222656 567.675781 174.28125 576.492188 C 174.867188 581.351562 174.027344 586.125 171.828125 590.792969 C 169.589844 595.472656 164.429688 602.101562 156.339844 610.664062 C 152.140625 615.117188 149.617188 618.566406 148.785156 621.058594 C 147.945312 623.558594 147.933594 627.816406 148.773438 633.890625 Z M 132.335938 665.972656 L 129.691406 643.921875 L 151.730469 641.253906 L 154.390625 663.3125 L 132.335938 665.972656 " fill-opacity="1" fill-rule="nonzero"/><g clip-path="url(#e196b793c0)"><path fill="#8fa3ad" d="M 901.832031 571.453125 C 901.832031 558.390625 891.25 547.804688 878.191406 547.804688 C 865.132812 547.804688 854.550781 558.390625 854.550781 571.453125 L 854.550781 1659.300781 C 854.550781 1672.363281 865.132812 1682.949219 878.191406 1682.949219 C 891.25 1682.949219 901.832031 1672.363281 901.832031 1659.300781 L 901.832031 571.453125 " fill-opacity="1" fill-rule="nonzero"/></g><g clip-path="url(#b971c895a0)"><path fill="#778f9b" d="M 707.953125 1683.105469 L 1048.429688 1683.105469 C 1022.71875 1625.898438 941.035156 1616.359375 885.070312 1615.359375 C 883.023438 1615.324219 880.703125 1615.3125 878.191406 1615.324219 C 875.664062 1615.3125 873.355469 1615.324219 871.3125 1615.359375 C 815.335938 1616.359375 733.648438 1625.898438 707.953125 1683.105469 " fill-opacity="1" fill-rule="nonzero"/></g><path fill="#465a64" d="M 196.886719 1612.402344 C 196.886719 1612.402344 188.9375 1629.011719 178.714844 1639.238281 C 168.496094 1649.460938 116.148438 1640.789062 121.824219 1662.511719 C 127.5 1684.222656 137.722656 1682.949219 183.140625 1682.949219 C 228.558594 1682.949219 250.375 1681.648438 268.21875 1676.707031 C 275.023438 1663.917969 266.296875 1611.992188 258.335938 1605.59375 C 250.398438 1599.207031 196.886719 1612.402344 196.886719 1612.402344 " fill-opacity="1" fill-rule="evenodd"/><g clip-path="url(#a102c1ae56)"><path fill="#465a64" d="M 449.027344 1611.753906 C 449.027344 1611.753906 456.976562 1628.363281 467.199219 1638.585938 C 477.417969 1648.8125 529.765625 1640.140625 524.078125 1661.863281 C 518.402344 1683.585938 508.179688 1682.300781 462.773438 1682.300781 C 417.355469 1682.300781 395.527344 1681 377.695312 1676.054688 C 370.878906 1663.269531 379.621094 1611.34375 387.566406 1604.957031 C 395.515625 1598.558594 449.027344 1611.753906 449.027344 1611.753906 " fill-opacity="1" fill-rule="evenodd"/></g><path fill="#6c4c43" d="M 208.671875 1060.574219 L 322.992188 1064.964844 L 437.304688 1060.574219 L 437.507812 1067.984375 L 443.53125 1084.476562 C 452.914062 1114.703125 452.585938 1160.6875 452.925781 1177.707031 C 455.964844 1330.550781 448.367188 1461.410156 452.179688 1613.519531 L 377.78125 1613.628906 L 322.992188 1217.472656 L 267.339844 1613.628906 L 192.304688 1613.628906 C 196.117188 1461.519531 190.007812 1330.550781 193.050781 1177.707031 C 193.398438 1160.6875 193.074219 1114.703125 202.441406 1084.476562 L 208.480469 1067.984375 L 208.671875 1060.574219 " fill-opacity="1" fill-rule="evenodd"/><path fill="#fccaa8" d="M 153.835938 903.183594 L 209.296875 916.234375 C 203.140625 948.0625 190.066406 982.460938 190.585938 1012.917969 L 139.214844 1004.414062 C 147.464844 973.8125 148.714844 936.332031 153.835938 903.183594 " fill-opacity="1" fill-rule="evenodd"/><path fill="#4eb5ab" d="M 214.539062 767.863281 C 229.941406 772.289062 239.058594 791.164062 234.789062 809.808594 L 209.164062 921.839844 L 153.140625 905.757812 C 157.792969 866.617188 149.003906 799.894531 179.558594 773.988281 C 190.417969 764.785156 204.210938 764.90625 214.539062 767.863281 " fill-opacity="1" fill-rule="evenodd"/><path fill="#fccaa8" d="M 150.722656 982.933594 L 163.589844 983.546875 C 175.613281 984.109375 186.832031 988.378906 188.109375 1001.058594 C 188.242188 1002.308594 190.019531 1002.996094 190.71875 1004.425781 C 190.945312 1004.90625 190.65625 1012.4375 190.585938 1012.917969 C 187.398438 1034.207031 182.925781 1041.460938 177.382812 1060.046875 C 170.359375 1078.964844 168.316406 1098.054688 167.195312 1114.835938 L 133.019531 1109.183594 C 138.839844 1080.820312 132.695312 1031.792969 139.214844 1004.414062 L 141.246094 995.886719 C 142.988281 988.574219 145.273438 982.679688 150.722656 982.933594 " fill-opacity="1" fill-rule="evenodd"/><path fill="#fccaa8" d="M 133.40625 1107.785156 C 133.40625 1107.785156 123.964844 1139.757812 133.359375 1168.53125 C 137.21875 1180.355469 139.394531 1186.128906 140.621094 1188.820312 C 141.523438 1190.832031 142.089844 1190.179688 144.035156 1194.570312 C 146.527344 1200.164062 150.925781 1209.5 153.933594 1212.398438 C 158.308594 1216.632812 162.46875 1221.984375 162.445312 1209.546875 C 162.445312 1209.546875 171.585938 1218.21875 167.015625 1200.996094 C 167.015625 1200.996094 177.933594 1209.871094 171.945312 1183.578125 C 171.945312 1183.578125 180.4375 1188.59375 176.636719 1171.105469 C 172.835938 1153.613281 169.480469 1141.5625 169.480469 1141.5625 C 169.480469 1141.5625 175.035156 1121.089844 160.199219 1103.15625 C 145.359375 1085.222656 141.332031 1087.699219 133.40625 1107.785156 " fill-opacity="1" fill-rule="evenodd"/><path fill="#e6b493" d="M 294.109375 708.707031 L 351.421875 708.707031 C 351.792969 740.164062 364.636719 769.898438 368.097656 795.335938 L 277.429688 795.335938 C 278.742188 762.164062 293.734375 740.164062 294.109375 708.707031 " fill-opacity="1" fill-rule="evenodd"/><path fill="#7fcac3" d="M 200.769531 766.082031 C 223.054688 762.414062 241.714844 758.890625 259.394531 762.34375 C 281.375 782.828125 302.515625 793.328125 322.765625 793.269531 C 343.027344 793.328125 364.15625 782.828125 386.136719 762.34375 C 403.8125 758.890625 426.984375 760.007812 446.574219 766.109375 C 437.484375 769.140625 423.824219 775.996094 421.660156 784.332031 C 412.738281 815.085938 427.179688 835.980469 430.691406 881.773438 C 430.976562 885.515625 428.464844 904.207031 428.308594 907.621094 C 425.027344 979.023438 433.40625 981.34375 443.640625 1082.464844 L 203.742188 1082.464844 C 204.054688 1079.460938 202.503906 1076.550781 202.804688 1073.710938 C 212.613281 981.152344 220.394531 976.90625 217.222656 907.621094 C 217.066406 904.207031 214.550781 885.515625 214.839844 881.773438 C 218.351562 835.980469 232.792969 815.085938 223.871094 784.332031 C 221.707031 775.996094 209.863281 769.113281 200.769531 766.082031 " fill-opacity="1" fill-rule="evenodd"/><path fill="#4eb5ab" d="M 322.765625 794.300781 C 315.683594 796.863281 293.328125 820.042969 287.339844 843.558594 L 253.34375 772.699219 C 253.34375 772.699219 242.507812 744.9375 286.796875 748.027344 C 286.796875 748.027344 287.902344 776.789062 322.765625 792.691406 L 322.765625 794.300781 " fill-opacity="1" fill-rule="evenodd"/><path fill="#4eb5ab" d="M 322.765625 794.300781 C 329.847656 796.863281 347.285156 820.042969 353.273438 843.558594 L 392.1875 772.699219 C 392.1875 772.699219 403.03125 744.9375 358.730469 748.027344 C 358.730469 748.027344 357.625 776.789062 322.765625 792.691406 L 322.765625 794.300781 " fill-opacity="1" fill-rule="evenodd"/><path fill="#e9b998" d="M 409.070312 629.707031 C 402.78125 626.277344 393.664062 631.039062 388.710938 640.363281 C 383.757812 649.683594 384.839844 660.015625 391.128906 663.457031 C 397.417969 666.886719 406.519531 662.109375 411.472656 652.800781 C 416.429688 643.476562 415.359375 633.144531 409.070312 629.707031 " fill-opacity="1" fill-rule="evenodd"/><path fill="#d8ad8f" d="M 406.796875 633.976562 C 402.09375 631.414062 395.300781 634.972656 391.597656 641.9375 C 387.894531 648.890625 388.699219 656.625 393.386719 659.1875 C 398.089844 661.75 404.894531 658.1875 408.601562 651.222656 C 412.292969 644.261719 411.496094 636.550781 406.796875 633.976562 " fill-opacity="1" fill-rule="evenodd"/><path fill="#e9b998" d="M 236.460938 629.707031 C 242.75 626.277344 251.863281 631.039062 256.820312 640.363281 C 261.773438 649.683594 260.691406 660.015625 254.402344 663.457031 C 248.113281 666.886719 239.011719 662.109375 234.054688 652.800781 C 229.101562 643.476562 230.183594 633.144531 236.460938 629.707031 " fill-opacity="1" fill-rule="evenodd"/><path fill="#d8ad8f" d="M 238.734375 633.976562 C 243.433594 631.414062 250.230469 634.972656 253.933594 641.9375 C 257.636719 648.890625 256.832031 656.625 252.128906 659.1875 C 247.441406 661.75 240.632812 658.1875 236.929688 651.222656 C 233.238281 644.261719 234.042969 636.550781 238.734375 633.976562 " fill-opacity="1" fill-rule="evenodd"/><path fill="#fccaa8" d="M 322.765625 556.5 C 365.382812 556.5 399.917969 597.960938 399.917969 649.121094 C 399.917969 680.441406 386.964844 708.132812 367.136719 724.898438 C 354.582031 735.496094 340.40625 736.925781 323.894531 736.925781 C 306.363281 736.925781 289.070312 734.714844 276.109375 722.890625 C 257.578125 705.976562 245.613281 679.226562 245.613281 649.121094 C 245.613281 597.960938 280.148438 556.5 322.765625 556.5 " fill-opacity="1" fill-rule="evenodd"/><path fill="#424242" d="M 318.351562 606.480469 C 352.660156 615.5 339.902344 589.773438 377.105469 620.457031 C 393.183594 648.808594 399.628906 657.179688 399.628906 657.179688 C 401.515625 640.761719 400.542969 622.621094 399.050781 608.921875 C 397.535156 595.027344 393.738281 579.703125 371.621094 561.011719 C 357.878906 549.390625 342.328125 547.828125 324.21875 547.828125 C 305.003906 547.828125 286.039062 550.257812 271.839844 563.210938 C 249.109375 583.949219 247.402344 599.671875 246.707031 614.25 C 246.042969 628.226562 244.203125 641.144531 245.914062 657.417969 C 271.058594 636.730469 265.886719 584.984375 318.351562 606.480469 " fill-opacity="1" fill-rule="evenodd"/><path fill="#fccaa8" d="M 493.125 903.183594 L 437.664062 916.234375 C 443.820312 948.0625 456.90625 982.460938 456.386719 1012.917969 L 507.746094 1004.414062 C 499.507812 973.8125 498.246094 936.332031 493.125 903.183594 " fill-opacity="1" fill-rule="evenodd"/><path fill="#4eb5ab" d="M 432.410156 767.863281 C 417.003906 772.289062 407.890625 791.164062 412.160156 809.808594 L 437.808594 921.839844 L 493.820312 905.757812 C 489.15625 866.617188 497.945312 799.894531 467.390625 773.988281 C 456.53125 764.785156 442.738281 764.90625 432.410156 767.863281 " fill-opacity="1" fill-rule="evenodd"/><path fill="#bcbcbc" d="M 202.128906 1073.710938 L 443.84375 1073.710938 L 445.851562 1090.910156 L 438.023438 1090.851562 L 207.949219 1090.851562 L 200.132812 1090.910156 L 202.128906 1073.710938 " fill-opacity="1" fill-rule="evenodd"/><path fill="#747474" d="M 302.070312 1094.085938 L 343.917969 1094.085938 L 343.917969 1070.535156 L 302.070312 1070.535156 L 302.070312 1094.085938 " fill-opacity="1" fill-rule="evenodd"/><path fill="#eeeeee" d="M 317.113281 819.441406 L 328.957031 819.441406 L 344.21875 960.390625 L 322.789062 995.476562 L 301.867188 960.175781 L 317.113281 819.441406 " fill-opacity="1" fill-rule="evenodd"/><path fill="#eeeeee" d="M 322.765625 794.300781 C 327.480469 796.011719 336.773438 806.847656 344.242188 820.835938 L 322.765625 842.320312 L 299.097656 818.636719 C 307.769531 805.730469 318.304688 795.914062 322.765625 794.300781 " fill-opacity="1" fill-rule="evenodd"/><path fill="#fccaa8" d="M 496.261719 982.933594 L 483.394531 983.546875 C 471.371094 984.109375 460.140625 988.378906 458.863281 1001.058594 C 458.746094 1002.308594 456.953125 1002.996094 456.265625 1004.425781 C 456.039062 1004.90625 456.328125 1012.4375 456.398438 1012.917969 C 459.574219 1034.207031 464.046875 1041.460938 469.601562 1060.046875 C 476.625 1078.964844 478.65625 1098.054688 479.789062 1114.835938 L 513.953125 1109.183594 C 508.132812 1080.820312 514.277344 1031.792969 507.757812 1004.414062 L 505.726562 995.886719 C 503.996094 988.574219 501.710938 982.679688 496.261719 982.933594 " fill-opacity="1" fill-rule="evenodd"/><path fill="#fccaa8" d="M 513.578125 1107.785156 C 513.578125 1107.785156 523.007812 1139.757812 513.613281 1168.53125 C 509.765625 1180.355469 507.589844 1186.128906 506.363281 1188.820312 C 505.449219 1190.832031 504.882812 1190.179688 502.9375 1194.570312 C 500.460938 1200.164062 496.046875 1209.5 493.050781 1212.398438 C 488.675781 1216.632812 484.515625 1221.984375 484.539062 1209.546875 C 484.539062 1209.546875 475.398438 1218.21875 479.957031 1200.996094 C 479.957031 1200.996094 469.050781 1209.871094 475.039062 1183.578125 C 475.039062 1183.578125 466.535156 1188.59375 470.335938 1171.105469 C 474.148438 1153.613281 477.492188 1141.5625 477.492188 1141.5625 C 477.492188 1141.5625 471.949219 1121.089844 486.785156 1103.15625 C 501.625 1085.222656 505.640625 1087.699219 513.578125 1107.785156 " fill-opacity="1" fill-rule="evenodd"/></svg>