<svg width="500" height="479" viewBox="0 0 500 479" fill="none" xmlns="http://www.w3.org/2000/svg">
<path d="M483.218 395.164C482.075 390.869 478.254 388.042 474.031 387.904C474.022 387.889 474.016 387.873 474.007 387.858C472.731 385.732 471.21 383.744 469.461 381.931C469.452 381.92 469.441 381.911 469.43 381.9C470.413 377.782 468.691 373.343 464.842 371.11C460.995 368.88 456.291 369.587 453.208 372.487C453.193 372.482 453.176 372.476 453.158 372.471C450.718 371.853 448.236 371.521 445.759 371.471C445.743 371.471 445.726 371.471 445.711 371.471C443.493 367.875 439.146 365.961 434.853 367.103C430.555 368.248 427.73 372.078 427.597 376.31C427.584 376.318 427.569 376.325 427.556 376.334C425.43 377.607 423.448 379.119 421.637 380.869C421.626 380.88 421.618 380.891 421.607 380.902C417.489 379.912 413.049 381.636 410.817 385.49C408.584 389.344 409.294 394.054 412.197 397.139C412.193 397.154 412.189 397.169 412.184 397.185C411.566 399.627 411.24 402.1 411.19 404.578C411.19 404.595 411.19 404.61 411.19 404.626C407.585 406.843 405.667 411.199 406.812 415.499C407.952 419.796 411.771 422.621 415.992 422.761C416.001 422.774 416.007 422.789 416.016 422.802C417.29 424.928 418.81 426.918 420.56 428.732C420.571 428.745 420.587 428.754 420.597 428.764C419.616 432.885 421.338 437.322 425.185 439.555C429.033 441.785 433.738 441.077 436.821 438.178C436.836 438.183 436.849 438.187 436.863 438.189C439.305 438.808 441.787 439.142 444.262 439.192C444.282 439.192 444.299 439.19 444.317 439.19C446.534 442.79 450.882 444.704 455.175 443.561C459.47 442.419 462.292 438.593 462.43 434.368C462.443 434.359 462.459 434.353 462.472 434.344C464.595 433.071 466.583 431.548 468.397 429.798C468.407 429.787 468.416 429.774 468.427 429.763C472.543 430.75 476.98 429.027 479.213 425.173C481.444 421.323 480.736 416.613 477.837 413.528C477.839 413.513 477.845 413.5 477.848 413.485C478.466 411.04 478.798 408.558 478.848 406.079C478.848 406.063 478.848 406.048 478.848 406.033C482.446 403.813 484.36 399.461 483.218 395.164ZM435.32 399.708C438.425 394.351 445.287 392.533 450.631 395.633C455.985 398.74 457.807 405.596 454.703 410.953C451.598 416.312 444.745 418.136 439.392 415.029C434.049 411.929 432.216 405.065 435.32 399.708Z" fill="#0F5784"/>
<path d="M120.519 408.679C119.78 405.893 117.303 404.063 114.563 403.975C114.559 403.964 114.555 403.953 114.55 403.945C113.722 402.566 112.737 401.277 111.603 400.102C111.597 400.095 111.59 400.089 111.583 400.082C112.221 397.412 111.105 394.535 108.61 393.089C106.115 391.64 103.065 392.101 101.068 393.98C101.058 393.978 101.047 393.974 101.036 393.969C99.454 393.569 97.8438 393.353 96.2403 393.32C96.2293 393.32 96.2184 393.323 96.2097 393.323C94.7721 390.991 91.9539 389.751 89.1706 390.491C86.3829 391.232 84.5521 393.716 84.4669 396.46C84.4582 396.464 84.4494 396.469 84.4407 396.473C83.0621 397.299 81.7775 398.28 80.6043 399.414C80.5978 399.42 80.5912 399.429 80.5847 399.435C77.915 398.795 75.0377 399.912 73.5893 402.409C72.143 404.908 72.604 407.962 74.485 409.961C74.4828 409.97 74.4784 409.979 74.4763 409.99C74.0765 411.571 73.8645 413.175 73.8318 414.783C73.8318 414.792 73.8339 414.803 73.8339 414.811C71.4963 416.249 70.2532 419.074 70.9938 421.861C71.7344 424.647 74.2097 426.478 76.9472 426.567C76.9515 426.576 76.9537 426.587 76.9603 426.596C77.7861 427.974 78.7714 429.263 79.9052 430.438C79.914 430.445 79.9227 430.452 79.9315 430.46C79.2935 433.13 80.4099 436.007 82.9048 437.454C85.3976 438.9 88.4496 438.441 90.4464 436.56C90.4552 436.562 90.4639 436.567 90.4727 436.569C92.0566 436.971 93.6645 437.185 95.2703 437.218C95.2812 437.218 95.2921 437.215 95.303 437.215C96.7406 439.551 99.5588 440.792 102.342 440.051C105.128 439.311 106.958 436.831 107.046 434.091C107.055 434.085 107.063 434.083 107.072 434.078C108.448 433.25 109.737 432.263 110.913 431.129C110.919 431.122 110.926 431.114 110.932 431.107C113.602 431.747 116.477 430.629 117.923 428.131C119.372 425.634 118.911 422.582 117.03 420.583C117.034 420.572 117.039 420.564 117.039 420.555C117.441 418.971 117.655 417.361 117.688 415.755C117.69 415.744 117.688 415.735 117.688 415.724C120.019 414.287 121.259 411.467 120.519 408.679ZM89.4721 411.624C91.4842 408.152 95.9344 406.975 99.3972 408.983C102.869 410.997 104.048 415.443 102.036 418.914C100.024 422.388 95.5827 423.57 92.1112 421.555C88.6484 419.546 87.4599 415.097 89.4721 411.624Z" fill="#0F5784"/>
<path d="M401.153 95.9324C399.301 99.926 394.56 101.656 390.549 99.7905C386.557 97.9357 384.829 93.1927 386.693 89.1794C388.565 85.1945 393.306 83.4643 397.286 85.3387C401.278 87.1935 403.006 91.9387 401.153 95.9324Z" fill="white"/>
<path d="M389.255 101.695C384.37 99.2087 382.292 93.2466 384.623 88.2175C387.04 83.0834 393.152 80.8725 398.258 83.2757C400.722 84.4314 402.612 86.4762 403.552 89.0498C404.489 91.6212 404.371 94.4067 403.22 96.8907C402.066 99.3769 400.012 101.262 397.439 102.2C394.865 103.137 392.078 103.017 389.589 101.859C389.476 101.806 389.364 101.752 389.255 101.695ZM396.517 87.5009C396.454 87.4681 396.392 87.4375 396.329 87.4069C393.487 86.0677 390.092 87.2999 388.752 90.1487C387.431 92.9976 388.674 96.4451 391.507 97.7231C392.895 98.3676 394.45 98.4353 395.881 97.9154C397.308 97.3954 398.446 96.3489 399.086 94.9704C399.726 93.5896 399.792 92.0451 399.27 90.6141C398.774 89.253 397.801 88.1541 396.517 87.5009Z" fill="#2492DD"/>
<path d="M373.207 122.274C373.119 122.23 373.032 122.178 372.949 122.121C371.911 121.409 371.647 119.991 372.359 118.951L386.931 97.6939C387.645 96.6562 389.068 96.3809 390.099 97.104C391.139 97.8162 391.403 99.2363 390.691 100.274L376.117 121.531C375.461 122.486 374.212 122.785 373.207 122.274Z" fill="#2492DD"/>
<path d="M417.655 110.631C417.257 110.428 416.914 110.104 416.685 109.681C416.088 108.573 416.503 107.19 417.611 106.591C420.523 105.023 422.448 102.55 423.031 99.631C423.518 97.206 422.99 94.7482 421.62 93.0616C420.829 92.0828 420.978 90.6475 421.954 89.8544C422.933 89.0592 424.364 89.2099 425.159 90.1865C427.374 92.9196 428.25 96.7821 427.499 100.527C426.647 104.8 423.901 108.383 419.772 110.607C419.088 110.974 418.299 110.959 417.655 110.631Z" fill="#2492DD"/>
<path d="M431.217 119.153C430.82 118.95 430.475 118.626 430.245 118.2C429.651 117.091 430.068 115.708 431.178 115.111C436.284 112.374 439.663 108.024 440.695 102.862C441.566 98.5118 440.596 94.0856 438.106 91.0227C437.31 90.0461 437.457 88.6108 438.433 87.8155C439.41 87.0181 440.845 87.1623 441.638 88.1432C444.981 92.2483 446.298 98.0858 445.164 103.757C443.86 110.276 439.657 115.736 433.33 119.131C432.646 119.498 431.86 119.481 431.217 119.153Z" fill="#2492DD"/>
<path d="M364.999 74.9798C364.23 74.5865 363.719 73.7716 363.756 72.8519C363.952 68.1548 365.973 64.1174 369.445 61.4827C372.482 59.1778 376.34 58.2821 379.763 59.0861C380.984 59.3744 381.747 60.6022 381.458 61.8279C381.17 63.0535 379.944 63.8138 378.719 63.5254C376.602 63.0273 374.166 63.6237 372.2 65.1137C369.829 66.9138 368.449 69.7299 368.309 73.0419C368.256 74.3003 367.195 75.2769 365.938 75.2245C365.6 75.2092 365.283 75.124 364.999 74.9798Z" fill="#2492DD"/>
<path d="M351.394 66.4924C350.625 66.0992 350.114 65.2843 350.151 64.3667C350.446 57.1943 353.516 51.0313 358.79 47.0092C363.388 43.505 369.213 42.1286 374.377 43.3258C375.59 43.6142 376.366 44.8333 376.082 46.0611C375.798 47.2867 374.574 48.0513 373.348 47.7673C369.492 46.8738 365.082 47.9465 361.551 50.638C357.374 53.8212 354.945 58.7629 354.704 64.5524C354.652 65.813 353.59 66.7896 352.334 66.7371C351.995 66.724 351.678 66.6366 351.394 66.4924Z" fill="#2492DD"/>
<path d="M168.749 408.159C168.749 408.159 191.147 419.365 213.291 429.06C200.084 433.36 170.916 441.142 154.461 432.324C138.869 423.972 128.533 397.651 123.919 383.402C145.288 395.977 168.749 408.159 168.749 408.159Z" fill="#2492DD"/>
<path d="M183.034 382.843C211.252 396.884 253.546 415.923 285.32 424.28L285.119 425.073C285.119 425.073 266.995 448.539 242.168 440.497C234.198 437.919 223.764 433.652 213.29 429.06C191.146 419.364 168.749 408.159 168.749 408.159C168.749 408.159 145.287 395.977 123.918 383.402C114.675 377.951 105.829 372.422 99.4432 367.788C78.3389 352.429 86.6343 323.958 86.6343 323.958L87.3443 323.117C112.962 344.278 154.367 367.93 182.731 382.688C182.822 382.76 182.934 382.79 183.034 382.843Z" fill="#1B72C1"/>
<path d="M440.06 218.32C439.962 210.927 439.097 203.681 437.373 196.816C436.394 192.812 435.107 188.958 433.512 185.255C415.124 142.55 364.821 113.572 336.123 98.6203C332.66 96.831 320.01 90.3861 316.436 88.6165C287.428 74.1713 234.558 50.6398 189.341 60.8664C133.408 73.5137 84.5147 158.007 125.091 191.931C125.111 191.942 125.111 191.942 125.111 191.942C125.952 192.652 126.824 193.351 127.746 194C142.171 204.342 166.845 219.419 195.253 235.298C195.913 235.66 196.551 236.012 197.21 236.372L226.138 252.083C232.718 255.534 239.347 258.988 245.997 262.351C291.511 285.41 337.112 305.084 362.171 313.425C364.998 314.351 367.775 314.974 370.523 315.299C383.922 316.957 396.412 311.703 406.966 302.165C426.687 281.642 437.729 247.123 440.06 218.32Z" fill="#2492DD"/>
<path d="M379.173 343.833C382.78 324.638 370.34 316.869 370.34 316.869L370.523 315.3C367.775 314.975 364.998 314.352 362.171 313.426C337.113 305.085 291.511 285.411 245.997 262.352C239.347 258.99 232.719 255.536 226.138 252.084L197.211 236.374C196.551 236.013 195.913 235.661 195.253 235.299C166.846 219.42 142.172 204.344 127.746 194.001C126.824 193.352 125.952 192.653 125.111 191.943C125.111 191.943 125.111 191.943 125.092 191.932C124.462 191.714 111.771 187.386 98.2699 200.527C86.1689 212.309 76.2175 230.903 71.5838 242.427C65.8752 256.63 57.4925 287.314 68.3198 303.575C72.3113 309.548 78.9987 316.205 87.3442 323.117C112.962 344.278 154.367 367.93 182.731 382.687C182.822 382.76 182.934 382.79 183.036 382.843C211.252 396.884 253.548 415.921 285.32 424.28C296.324 427.175 306.086 428.793 313.546 428.503C327.052 427.937 339.029 419.172 348.978 407.254C353.408 401.963 357.607 396.128 361.016 389.923C368.341 376.599 376.547 357.808 379.173 343.833Z" fill="#2492DD"/>
<path d="M85.6008 307.496C84.3862 303.38 83.9558 298.731 84.041 293.883C83.8509 286.842 84.8493 279.995 86.8592 273.498C88.7206 265.686 91.1697 258.524 93.2429 253.46C97.9488 241.975 107.87 223.363 119.61 211.4C126.99 203.878 133.957 201.827 138.742 201.503C134.632 198.805 130.927 196.282 127.746 194.001C126.824 193.352 125.952 192.653 125.113 191.943C125.113 191.943 125.113 191.943 125.092 191.932C124.462 191.714 111.769 187.386 98.2699 200.529C86.1667 212.309 76.2175 230.903 71.5838 242.427C65.8752 256.63 57.4925 287.314 68.3198 303.575C72.3113 309.548 78.9987 316.205 87.3464 323.117C88.8866 324.391 90.5055 325.677 92.155 326.964C89.1816 320.867 86.9707 314.326 85.6008 307.496Z" fill="#70CAF2"/>
<path d="M231.959 254.114C231.288 253.747 230.637 253.391 229.966 253.024C201.058 236.936 175.925 221.702 161.2 211.302C160.259 210.649 159.367 209.948 158.507 209.236C158.507 209.236 158.507 209.236 158.487 209.227C140.485 194.489 139.255 170.774 148.19 147.719C161.631 118.957 179.456 103.369 192.051 94.2635C200.691 88.0175 210.677 84.2379 220.624 82.2346C265.948 73.109 319.633 97.1626 349.118 111.861C352.751 113.662 365.612 120.213 369.132 122.033C376.381 125.804 384.988 130.453 394.129 135.95C374.189 119.307 351.894 106.843 336.121 98.6242C332.658 96.8349 320.009 90.3901 316.434 88.6204C287.426 74.1752 234.556 50.6437 189.341 60.8703C133.407 73.5176 84.515 158.011 125.092 191.935C125.111 191.946 125.111 191.946 125.111 191.946C125.952 192.656 126.822 193.355 127.746 194.004C142.172 204.346 166.843 219.423 195.251 235.301C195.911 235.664 196.551 236.016 197.211 236.376L226.138 252.087C232.717 255.538 239.345 258.992 245.995 262.355C250.974 264.878 255.953 267.355 260.906 269.787L231.959 254.114Z" fill="#70CAF2"/>
<path d="M374.852 306.795C372.125 306.422 369.366 305.766 366.55 304.816C341.588 296.289 296.065 276.463 250.553 253.399C243.903 250.035 237.272 246.585 230.69 243.135L201.743 227.467C201.081 227.108 200.443 226.757 199.781 226.396C171.345 210.577 146.616 195.607 132.125 185.394C131.198 184.754 130.322 184.063 129.475 183.366C129.475 183.366 129.475 183.366 129.455 183.355C128.243 182.366 127.107 181.334 126.047 180.264C119.759 174.656 114.433 167.977 110.265 160.527C110.846 172.77 115.375 183.81 125.092 191.932C125.112 191.943 125.112 191.943 125.112 191.943C125.953 192.653 126.823 193.353 127.747 194.001C142.17 204.344 166.846 219.42 195.252 235.299C195.912 235.661 196.552 236.013 197.211 236.374L226.139 252.084C232.717 255.536 239.348 258.99 245.998 262.352C291.512 285.412 337.113 305.087 362.172 313.426C364.997 314.352 367.773 314.975 370.524 315.3C383.936 316.952 396.387 311.691 406.943 302.155C398.912 305.485 385.166 308.248 374.852 306.795Z" fill="#1B72C1"/>
<path d="M340.329 362.969C345.015 367.478 349 372.468 352.445 377.565C364.798 395.862 370.172 415.832 375.282 421.781C375.459 421.989 375.656 422.181 375.837 422.356C375.94 422.478 376.06 422.583 376.2 422.675C376.335 422.797 376.458 422.904 376.595 422.996C376.613 422.98 376.628 422.998 376.645 422.983C376.846 423.111 377.047 423.208 377.253 423.271C384.589 425.831 393.616 418.397 393.787 383.616C393.824 376.464 393.264 369.872 392.351 363.915C390.09 349.157 374.378 340.252 360.861 346.573C354.156 349.708 346.96 354.791 340.329 362.969Z" fill="#2492DD"/>
<path d="M340.642 362.703L340.329 362.969C345.015 367.478 349 372.468 352.445 377.565C364.798 395.862 370.172 415.832 375.282 421.781C375.459 421.989 375.656 422.181 375.837 422.356C375.94 422.478 376.06 422.583 376.2 422.675C376.335 422.797 376.458 422.904 376.595 422.996C376.613 422.981 376.628 422.998 376.645 422.983C383.291 421.417 382.409 399.264 375.295 383.005C369.469 369.687 352.511 352.491 340.642 362.703Z" fill="#1B72C1"/>
<path d="M239.105 70.4914C239.105 70.4914 191.94 71.4855 165.037 96.6205C165.037 96.6205 184.249 52.5244 239.105 70.4914Z" fill="white"/>
<path d="M283.323 416.911C283.323 416.911 307.744 426.891 323.983 418.716C340.219 410.541 347.387 398.031 347.387 398.031C347.387 398.031 333.338 408.435 318.497 412.586C302.658 417.016 283.323 416.911 283.323 416.911Z" fill="#70CAF2"/>
<path d="M83.4531 311.656C83.4531 311.656 71.1532 305.314 69.4929 294.425C67.8587 283.711 73.0343 278.273 73.0343 278.273C73.0343 278.273 72.3657 286.077 75.5117 295.29C78.295 303.441 83.4531 311.656 83.4531 311.656Z" fill="white"/>
<path d="M233.324 431.627C233.324 431.627 247.016 440.265 258.424 436.903C269.647 433.593 271.611 426.301 271.611 426.301C271.611 426.301 264.592 430.45 253.856 431.666C244.359 432.743 233.324 431.627 233.324 431.627Z" fill="#2492DD"/>
<path d="M109.607 368.064C109.607 368.064 94.9189 362.244 91.1109 351.13C87.3642 340.193 92.0678 334.297 92.0678 334.297C92.0678 334.297 92.7517 342.372 97.8901 351.674C102.436 359.904 109.607 368.064 109.607 368.064Z" fill="#2492DD"/>
<path d="M180.693 430.97C180.693 430.97 165.138 434.026 153.736 426.004C142.515 418.11 141.541 410.012 141.541 410.012C141.541 410.012 148.252 417.029 159.272 422.628C169.018 427.581 180.693 430.97 180.693 430.97Z" fill="#70CAF2"/>
<path d="M246.032 300.171C260.856 307.722 266.756 325.874 259.21 340.709C251.665 355.541 233.525 361.446 218.702 353.895C203.859 346.332 197.958 328.179 205.504 313.347C213.05 298.515 231.189 292.61 246.032 300.171Z" fill="white"/>
<path d="M220.738 343.804C220.34 343.601 219.997 343.278 219.768 342.851C219.171 341.744 219.586 340.361 220.696 339.764L237.164 330.901L220.399 326.776C219.468 326.545 218.782 325.767 218.678 324.817C218.57 323.869 219.066 322.953 219.921 322.525L243.157 310.876C244.28 310.31 245.65 310.765 246.216 311.892C246.777 313.019 246.323 314.389 245.198 314.953L227.495 323.827L244.005 327.888C244.925 328.116 245.604 328.878 245.724 329.815C245.84 330.75 245.372 331.664 244.542 332.111L222.852 343.782C222.171 344.147 221.382 344.132 220.738 343.804Z" fill="#62A5D3"/>
<path d="M411.939 208.699C421.508 225.728 412.06 249.12 402.541 265.621C395.583 277.694 379.765 282.581 365.04 277.141C312.214 257.645 269.003 236.014 235.363 216.354C195.667 193.788 166.193 169.907 161.85 166.394C151.656 158.171 147.564 145.333 151.82 134.456C158.754 116.714 171.53 97.8708 189.523 94.7816C197.415 93.4271 213.817 94.1131 232.545 95.7036C291.733 100.685 348.203 129.68 386.623 174.934C397.682 187.983 407.19 200.215 411.939 208.699Z" fill="#ECFFFF"/>
<path d="M412.21 208.424C407.463 199.917 397.953 187.652 386.89 174.572C348.454 129.203 291.916 100.17 232.625 95.2415C213.865 93.6685 197.434 93 189.528 94.3698C171.497 97.4918 158.675 116.416 151.708 134.23C148.722 141.852 149.823 150.425 154.223 157.713C152.453 152.481 152.401 146.964 154.348 141.935C160.672 125.561 172.535 108.251 189.578 105.645C197.052 104.5 212.64 105.379 230.449 107.128C286.736 112.614 340.788 140.362 377.934 182.942C388.629 195.22 397.835 206.716 402.469 214.662C411.806 230.614 403.172 252.197 394.372 267.381C390.584 273.924 383.831 278.082 376.053 279.34C387.136 279.751 397.457 274.711 402.729 265.561C412.285 248.99 421.779 225.502 412.21 208.424Z" fill="#1B72C1"/>
<path d="M295.562 222.855C295.505 222.852 295.446 222.852 295.387 222.848C293.501 222.75 292.055 221.14 292.154 219.254C292.527 212.106 286.928 206.992 282.019 204.785C276.965 202.515 269.738 201.903 264.596 206.983C263.248 208.311 261.087 208.294 259.763 206.952C258.437 205.606 258.448 203.441 259.794 202.113C266.153 195.834 275.749 194.469 284.819 198.545C293.879 202.618 299.435 210.887 298.979 219.613C298.885 221.441 297.371 222.857 295.562 222.855Z" fill="#256199"/>
<path d="M197.357 158.747C195.985 158.745 194.691 157.911 194.172 156.552C193.496 154.789 194.377 152.809 196.138 152.132L227.431 140.116C229.194 139.446 231.169 140.319 231.847 142.085C232.522 143.848 231.641 145.825 229.88 146.502L198.587 158.518C198.183 158.673 197.765 158.747 197.357 158.747Z" fill="#256199"/>
<path d="M219.008 168.396C217.636 168.394 216.342 167.559 215.822 166.2L203.815 134.887C203.138 133.124 204.018 131.147 205.779 130.47C207.542 129.795 209.52 130.673 210.197 132.436L222.204 163.749C222.879 165.512 221.999 167.492 220.238 168.169C219.834 168.324 219.416 168.396 219.008 168.396Z" fill="#256199"/>
<path d="M342.747 223.535C341.378 223.533 340.084 222.699 339.562 221.34C338.887 219.577 339.767 217.6 341.528 216.922L372.82 204.906C374.583 204.234 376.56 205.107 377.235 206.873C377.912 208.636 377.032 210.615 375.269 211.292L343.98 223.308C343.573 223.463 343.158 223.538 342.747 223.535Z" fill="#256199"/>
<path d="M364.397 233.188C363.028 233.186 361.734 232.351 361.214 230.993L349.203 199.679C348.528 197.916 349.408 195.939 351.169 195.262C352.928 194.589 354.909 195.465 355.584 197.228L367.596 228.541C368.271 230.304 367.39 232.284 365.63 232.961C365.223 233.116 364.808 233.188 364.397 233.188Z" fill="#256199"/>
<path d="M119.997 245.098C119.997 245.098 94.3613 271.865 102.779 306.066C111.199 340.268 176.253 361.011 176.253 361.011C176.253 361.011 162.177 327.701 192.022 289.939C192.022 289.939 147.786 268.395 119.997 245.098Z" fill="#0F5784"/>
<path d="M136.286 301.201C137.776 301.642 139.296 301.909 140.821 302.001C144.754 302.243 148.702 301.361 152.16 299.466C153.499 298.732 154.762 297.845 155.922 296.81C157.37 295.545 158.655 294.051 159.737 292.346C160.816 290.642 161.622 288.844 162.148 286.994C162.59 285.504 162.856 283.981 162.948 282.456C163.191 278.519 162.308 274.57 160.416 271.109C159.682 269.768 158.795 268.505 157.762 267.345C156.497 265.894 155.002 264.609 153.3 263.528C151.598 262.447 149.8 261.64 147.95 261.112C146.462 260.67 144.942 260.404 143.417 260.312C139.482 260.072 135.534 260.954 132.08 262.857C130.739 263.591 129.481 264.474 128.32 265.507C126.872 266.772 125.587 268.269 124.508 269.971C123.427 271.675 122.623 273.475 122.094 275.325C121.653 276.815 121.391 278.329 121.299 279.856C121.048 283.796 121.928 287.745 123.822 291.204C124.554 292.545 125.441 293.81 126.474 294.97C127.739 296.419 129.234 297.706 130.936 298.787C132.64 299.868 134.438 300.672 136.286 301.201ZM138.416 286.994C135.2 284.951 134.241 280.676 136.286 277.453C138.331 274.229 142.604 273.278 145.82 275.321C149.042 277.368 149.995 281.637 147.95 284.862C145.905 288.086 141.638 289.039 138.416 286.994Z" fill="#2492DD"/>
<path d="M157.865 264.162C157.865 264.442 157.838 264.721 157.784 264.997C157.727 265.272 157.646 265.539 157.539 265.799C157.432 266.056 157.301 266.303 157.146 266.537C156.989 266.771 156.812 266.987 156.613 267.186C156.416 267.382 156.2 267.559 155.966 267.717C155.732 267.872 155.488 268.005 155.228 268.112C154.968 268.219 154.701 268.3 154.426 268.355C154.151 268.409 153.873 268.438 153.594 268.438C153.312 268.438 153.034 268.409 152.759 268.355C152.484 268.3 152.217 268.219 151.957 268.112C151.699 268.005 151.453 267.872 151.219 267.717C150.985 267.559 150.771 267.382 150.572 267.186C150.373 266.987 150.196 266.771 150.041 266.537C149.884 266.303 149.753 266.056 149.646 265.799C149.539 265.539 149.458 265.272 149.403 264.997C149.349 264.721 149.32 264.442 149.32 264.162C149.32 263.88 149.349 263.603 149.403 263.328C149.458 263.052 149.539 262.786 149.646 262.526C149.753 262.266 149.884 262.019 150.041 261.787C150.196 261.554 150.373 261.337 150.572 261.139C150.771 260.94 150.985 260.763 151.219 260.608C151.453 260.45 151.699 260.319 151.957 260.212C152.217 260.105 152.484 260.024 152.759 259.97C153.034 259.915 153.312 259.887 153.594 259.887C153.873 259.887 154.151 259.915 154.426 259.97C154.701 260.024 154.968 260.105 155.228 260.212C155.488 260.319 155.732 260.45 155.966 260.608C156.2 260.763 156.416 260.94 156.613 261.139C156.812 261.337 156.989 261.554 157.146 261.787C157.301 262.019 157.432 262.266 157.539 262.526C157.646 262.786 157.727 263.052 157.784 263.328C157.838 263.603 157.865 263.88 157.865 264.162Z" fill="#2492DD"/>
<path d="M129.534 269.85C129.534 270.132 129.507 270.409 129.453 270.684C129.396 270.96 129.315 271.226 129.208 271.486C129.101 271.746 128.97 271.993 128.815 272.224C128.658 272.458 128.481 272.675 128.282 272.873C128.085 273.072 127.869 273.249 127.635 273.404C127.401 273.561 127.157 273.693 126.897 273.8C126.637 273.907 126.37 273.988 126.095 274.044C125.82 274.099 125.542 274.125 125.263 274.125C124.981 274.125 124.703 274.099 124.428 274.044C124.153 273.988 123.886 273.907 123.626 273.8C123.368 273.693 123.122 273.561 122.888 273.404C122.654 273.249 122.44 273.072 122.241 272.873C122.042 272.675 121.865 272.458 121.71 272.224C121.553 271.993 121.422 271.746 121.315 271.486C121.208 271.226 121.127 270.96 121.072 270.684C121.018 270.409 120.989 270.132 120.989 269.85C120.989 269.57 121.018 269.293 121.072 269.017C121.127 268.742 121.208 268.473 121.315 268.213C121.422 267.956 121.553 267.709 121.71 267.475C121.865 267.241 122.042 267.025 122.241 266.828C122.44 266.629 122.654 266.452 122.888 266.295C123.122 266.14 123.368 266.009 123.626 265.9C123.886 265.793 124.153 265.712 124.428 265.657C124.703 265.603 124.981 265.574 125.263 265.574C125.542 265.574 125.82 265.603 126.095 265.657C126.37 265.712 126.637 265.793 126.897 265.9C127.157 266.009 127.401 266.14 127.635 266.295C127.869 266.452 128.085 266.629 128.282 266.828C128.481 267.025 128.658 267.241 128.815 267.475C128.97 267.709 129.101 267.956 129.208 268.213C129.315 268.473 129.396 268.742 129.453 269.017C129.507 269.293 129.534 269.57 129.534 269.85Z" fill="#2492DD"/>
<path d="M142.522 261.131C142.522 261.411 142.496 261.69 142.441 261.965C142.386 262.241 142.306 262.507 142.196 262.767C142.089 263.025 141.958 263.272 141.803 263.506C141.646 263.739 141.469 263.956 141.27 264.155C141.073 264.351 140.857 264.53 140.623 264.685C140.39 264.841 140.145 264.974 139.885 265.081C139.625 265.188 139.358 265.269 139.083 265.323C138.808 265.378 138.53 265.406 138.251 265.406C137.969 265.406 137.692 265.378 137.416 265.323C137.141 265.269 136.874 265.188 136.614 265.081C136.357 264.974 136.11 264.841 135.876 264.685C135.642 264.53 135.428 264.351 135.229 264.155C135.031 263.956 134.854 263.739 134.698 263.506C134.541 263.272 134.41 263.025 134.303 262.767C134.196 262.507 134.115 262.241 134.061 261.965C134.006 261.69 133.978 261.411 133.978 261.131C133.978 260.849 134.006 260.572 134.061 260.296C134.115 260.021 134.196 259.755 134.303 259.495C134.41 259.235 134.541 258.99 134.698 258.756C134.854 258.522 135.031 258.306 135.229 258.107C135.428 257.908 135.642 257.732 135.876 257.576C136.11 257.419 136.357 257.288 136.614 257.181C136.874 257.074 137.141 256.993 137.416 256.938C137.692 256.884 137.969 256.855 138.251 256.855C138.53 256.855 138.808 256.884 139.083 256.938C139.358 256.993 139.625 257.074 139.885 257.181C140.145 257.288 140.39 257.419 140.623 257.576C140.857 257.732 141.073 257.908 141.27 258.107C141.469 258.306 141.646 258.522 141.803 258.756C141.958 258.99 142.089 259.235 142.196 259.495C142.306 259.755 142.386 260.021 142.441 260.296C142.496 260.572 142.522 260.849 142.522 261.131Z" fill="#2492DD"/>
<path d="M126.51 285.201C126.51 285.481 126.482 285.761 126.427 286.036C126.373 286.311 126.292 286.578 126.185 286.838C126.078 287.095 125.944 287.342 125.789 287.576C125.634 287.81 125.457 288.026 125.258 288.225C125.06 288.421 124.843 288.601 124.612 288.756C124.378 288.911 124.131 289.044 123.871 289.151C123.613 289.258 123.347 289.339 123.071 289.394C122.796 289.448 122.517 289.477 122.237 289.477C121.957 289.477 121.68 289.448 121.405 289.394C121.129 289.339 120.861 289.258 120.603 289.151C120.343 289.044 120.096 288.911 119.864 288.756C119.631 288.601 119.414 288.421 119.215 288.225C119.019 288.026 118.84 287.81 118.685 287.576C118.529 287.342 118.398 287.095 118.289 286.838C118.182 286.578 118.101 286.311 118.047 286.036C117.992 285.761 117.966 285.481 117.966 285.201C117.966 284.919 117.992 284.642 118.047 284.367C118.101 284.091 118.182 283.825 118.289 283.565C118.398 283.305 118.529 283.06 118.685 282.826C118.84 282.593 119.019 282.376 119.215 282.178C119.414 281.979 119.631 281.802 119.864 281.647C120.096 281.489 120.343 281.358 120.603 281.251C120.861 281.144 121.129 281.063 121.405 281.009C121.68 280.954 121.957 280.926 122.237 280.926C122.517 280.926 122.796 280.954 123.071 281.009C123.347 281.063 123.613 281.144 123.871 281.251C124.131 281.358 124.378 281.489 124.612 281.647C124.843 281.802 125.06 281.979 125.258 282.178C125.457 282.376 125.634 282.593 125.789 282.826C125.944 283.06 126.078 283.305 126.185 283.565C126.292 283.825 126.373 284.091 126.427 284.367C126.482 284.642 126.51 284.919 126.51 285.201Z" fill="#2492DD"/>
<path d="M150.561 301.226C150.561 301.508 150.535 301.786 150.48 302.061C150.426 302.336 150.345 302.605 150.235 302.863C150.128 303.123 149.997 303.37 149.842 303.603C149.685 303.835 149.508 304.051 149.311 304.25C149.113 304.449 148.896 304.626 148.662 304.781C148.429 304.938 148.184 305.069 147.924 305.176C147.664 305.283 147.398 305.366 147.122 305.421C146.847 305.476 146.57 305.502 146.29 305.502C146.008 305.502 145.731 305.476 145.455 305.421C145.18 305.366 144.914 305.283 144.654 305.176C144.396 305.069 144.149 304.938 143.915 304.781C143.684 304.626 143.467 304.449 143.268 304.25C143.07 304.051 142.893 303.835 142.738 303.603C142.58 303.37 142.449 303.123 142.342 302.863C142.235 302.605 142.154 302.336 142.1 302.061C142.045 301.786 142.017 301.508 142.017 301.226C142.017 300.947 142.045 300.669 142.1 300.394C142.154 300.119 142.235 299.85 142.342 299.592C142.449 299.332 142.58 299.085 142.738 298.852C142.893 298.618 143.07 298.404 143.268 298.205C143.467 298.006 143.684 297.829 143.915 297.672C144.149 297.517 144.396 297.386 144.654 297.279C144.914 297.169 145.18 297.089 145.455 297.034C145.731 296.979 146.008 296.953 146.29 296.953C146.57 296.953 146.847 296.979 147.122 297.034C147.398 297.089 147.664 297.169 147.924 297.279C148.184 297.386 148.429 297.517 148.662 297.672C148.896 297.829 149.113 298.006 149.311 298.205C149.508 298.404 149.685 298.618 149.842 298.852C149.997 299.085 150.128 299.332 150.235 299.592C150.345 299.85 150.426 300.119 150.48 300.394C150.535 300.669 150.561 300.947 150.561 301.226Z" fill="#2492DD"/>
<path d="M135.218 298.201C135.218 298.483 135.192 298.761 135.137 299.036C135.083 299.311 135.002 299.578 134.895 299.838C134.786 300.098 134.655 300.342 134.499 300.576C134.342 300.81 134.165 301.026 133.969 301.225C133.77 301.424 133.553 301.601 133.32 301.756C133.088 301.911 132.841 302.044 132.581 302.151C132.323 302.258 132.055 302.339 131.779 302.394C131.504 302.448 131.227 302.477 130.947 302.477C130.665 302.477 130.388 302.448 130.113 302.394C129.837 302.339 129.571 302.258 129.311 302.151C129.053 302.044 128.806 301.911 128.572 301.756C128.341 301.601 128.124 301.424 127.926 301.225C127.727 301.026 127.55 300.81 127.395 300.576C127.24 300.342 127.106 300.098 126.999 299.838C126.892 299.578 126.811 299.311 126.757 299.036C126.702 298.761 126.674 298.483 126.674 298.201C126.674 297.922 126.702 297.642 126.757 297.367C126.811 297.091 126.892 296.825 126.999 296.565C127.106 296.305 127.24 296.06 127.395 295.826C127.55 295.593 127.727 295.376 127.926 295.178C128.124 294.979 128.341 294.802 128.572 294.647C128.806 294.492 129.053 294.358 129.313 294.251C129.571 294.144 129.837 294.063 130.113 294.009C130.388 293.954 130.665 293.926 130.947 293.926C131.227 293.926 131.504 293.954 131.779 294.009C132.055 294.063 132.323 294.144 132.581 294.251C132.841 294.358 133.088 294.492 133.32 294.647C133.553 294.802 133.77 294.979 133.969 295.178C134.165 295.376 134.342 295.593 134.499 295.826C134.655 296.06 134.786 296.305 134.895 296.565C135.002 296.825 135.083 297.091 135.137 297.367C135.192 297.642 135.218 297.922 135.218 298.201Z" fill="#2492DD"/>
<path d="M163.549 292.51C163.549 292.789 163.523 293.069 163.468 293.344C163.414 293.62 163.333 293.886 163.226 294.146C163.117 294.406 162.986 294.651 162.83 294.885C162.675 295.118 162.496 295.335 162.3 295.533C162.101 295.732 161.885 295.909 161.651 296.064C161.419 296.219 161.172 296.353 160.912 296.46C160.655 296.567 160.386 296.648 160.111 296.702C159.835 296.757 159.558 296.785 159.278 296.785C158.996 296.785 158.719 296.757 158.444 296.702C158.168 296.648 157.902 296.567 157.644 296.46C157.384 296.353 157.137 296.219 156.903 296.064C156.672 295.909 156.456 295.732 156.257 295.533C156.058 295.335 155.881 295.118 155.726 294.885C155.571 294.651 155.437 294.406 155.33 294.146C155.223 293.886 155.143 293.62 155.088 293.344C155.033 293.069 155.005 292.789 155.005 292.51C155.005 292.23 155.033 291.951 155.088 291.675C155.143 291.4 155.223 291.133 155.33 290.873C155.437 290.614 155.571 290.369 155.726 290.135C155.881 289.901 156.058 289.685 156.257 289.486C156.456 289.287 156.672 289.11 156.903 288.955C157.137 288.8 157.384 288.667 157.644 288.56C157.902 288.453 158.168 288.372 158.444 288.317C158.719 288.263 158.996 288.234 159.278 288.234C159.558 288.234 159.835 288.263 160.111 288.317C160.386 288.372 160.655 288.453 160.912 288.56C161.172 288.667 161.419 288.8 161.651 288.955C161.885 289.11 162.101 289.287 162.3 289.486C162.496 289.685 162.675 289.901 162.83 290.135C162.986 290.369 163.117 290.614 163.226 290.873C163.333 291.133 163.414 291.4 163.468 291.675C163.523 291.951 163.549 292.23 163.549 292.51Z" fill="#2492DD"/>
<path d="M166.575 277.156C166.575 277.438 166.546 277.715 166.492 277.991C166.437 278.266 166.356 278.535 166.249 278.792C166.142 279.052 166.011 279.299 165.854 279.533C165.699 279.765 165.522 279.981 165.323 280.18C165.124 280.379 164.91 280.555 164.676 280.711C164.442 280.868 164.196 280.999 163.938 281.106C163.678 281.213 163.411 281.296 163.136 281.351C162.861 281.405 162.583 281.432 162.301 281.432C162.022 281.432 161.744 281.405 161.469 281.351C161.194 281.296 160.927 281.213 160.667 281.106C160.407 280.999 160.163 280.868 159.929 280.711C159.695 280.555 159.479 280.379 159.282 280.18C159.083 279.981 158.906 279.765 158.749 279.533C158.594 279.299 158.463 279.052 158.356 278.792C158.249 278.535 158.166 278.266 158.111 277.991C158.056 277.715 158.03 277.438 158.03 277.156C158.03 276.876 158.056 276.599 158.111 276.324C158.166 276.048 158.249 275.78 158.356 275.522C158.463 275.262 158.594 275.015 158.749 274.781C158.906 274.548 159.083 274.333 159.282 274.135C159.479 273.936 159.695 273.759 159.929 273.602C160.163 273.446 160.407 273.315 160.667 273.206C160.927 273.099 161.194 273.018 161.469 272.964C161.744 272.909 162.022 272.883 162.301 272.883C162.583 272.883 162.861 272.909 163.136 272.964C163.411 273.018 163.678 273.099 163.938 273.206C164.196 273.315 164.442 273.446 164.676 273.602C164.91 273.759 165.124 273.936 165.323 274.135C165.522 274.333 165.699 274.548 165.854 274.781C166.011 275.015 166.142 275.262 166.249 275.522C166.356 275.78 166.437 276.048 166.492 276.324C166.546 276.599 166.575 276.876 166.575 277.156Z" fill="#2492DD"/>
<path d="M132.489 334.863C133.485 335.289 134.516 335.595 135.565 335.781C138.272 336.263 141.077 335.968 143.624 334.933C144.612 334.533 145.558 334.02 146.443 333.397C147.548 332.635 148.557 331.702 149.442 330.609C150.327 329.515 151.028 328.333 151.544 327.094C151.968 326.096 152.273 325.065 152.461 324.014C152.942 321.307 152.647 318.5 151.614 315.952C151.214 314.963 150.701 314.017 150.078 313.13C149.315 312.024 148.385 311.015 147.292 310.128C146.2 309.243 145.018 308.542 143.779 308.026C142.783 307.6 141.75 307.294 140.701 307.109C137.996 306.626 135.191 306.921 132.644 307.963C131.656 308.363 130.715 308.874 129.828 309.496C128.722 310.257 127.713 311.19 126.828 312.284C125.943 313.376 125.242 314.558 124.729 315.799C124.303 316.796 124.001 317.825 123.813 318.875C123.324 321.582 123.619 324.39 124.654 326.939C125.054 327.927 125.568 328.873 126.19 329.76C126.951 330.865 127.883 331.874 128.976 332.761C130.068 333.646 131.25 334.35 132.489 334.863ZM135.102 325.191C133.037 323.518 132.714 320.481 134.39 318.41C136.065 316.341 139.102 316.026 141.166 317.698C143.233 319.373 143.552 322.408 141.879 324.479C140.203 326.548 137.171 326.867 135.102 325.191Z" fill="#2492DD"/>
<path d="M150.424 310.591C150.424 310.786 150.404 310.98 150.367 311.173C150.328 311.365 150.271 311.551 150.197 311.732C150.122 311.913 150.03 312.084 149.921 312.248C149.812 312.409 149.69 312.56 149.55 312.7C149.412 312.837 149.261 312.962 149.1 313.071C148.936 313.178 148.766 313.27 148.584 313.346C148.403 313.421 148.217 313.477 148.025 313.515C147.833 313.554 147.638 313.574 147.444 313.574C147.247 313.574 147.055 313.554 146.863 313.515C146.67 313.477 146.485 313.421 146.303 313.346C146.122 313.27 145.952 313.178 145.788 313.071C145.626 312.962 145.475 312.837 145.336 312.7C145.198 312.56 145.073 312.409 144.966 312.248C144.857 312.084 144.765 311.913 144.691 311.732C144.615 311.551 144.558 311.365 144.521 311.173C144.484 310.98 144.464 310.786 144.464 310.591C144.464 310.395 144.484 310.2 144.521 310.008C144.558 309.816 144.615 309.63 144.691 309.449C144.765 309.268 144.857 309.097 144.966 308.933C145.073 308.772 145.198 308.621 145.336 308.481C145.475 308.343 145.626 308.219 145.788 308.112C145.949 308.003 146.122 307.911 146.303 307.834C146.485 307.76 146.67 307.703 146.863 307.666C147.055 307.627 147.247 307.609 147.444 307.609C147.638 307.609 147.833 307.627 148.025 307.666C148.217 307.703 148.403 307.76 148.584 307.834C148.766 307.911 148.936 308.003 149.1 308.112C149.261 308.219 149.412 308.343 149.55 308.481C149.69 308.621 149.812 308.772 149.921 308.933C150.03 309.097 150.122 309.268 150.197 309.449C150.271 309.63 150.328 309.816 150.367 310.008C150.404 310.2 150.424 310.395 150.424 310.591Z" fill="#2492DD"/>
<path d="M130.342 312.259C130.342 312.454 130.322 312.648 130.285 312.841C130.246 313.033 130.191 313.219 130.114 313.4C130.04 313.581 129.948 313.754 129.839 313.915C129.73 314.079 129.608 314.23 129.47 314.368C129.33 314.505 129.179 314.63 129.018 314.739C128.854 314.848 128.684 314.94 128.502 315.014C128.321 315.089 128.135 315.145 127.943 315.185C127.751 315.222 127.558 315.242 127.362 315.242C127.165 315.242 126.973 315.222 126.781 315.185C126.588 315.145 126.403 315.089 126.221 315.014C126.04 314.94 125.87 314.848 125.706 314.739C125.544 314.63 125.393 314.505 125.254 314.368C125.116 314.23 124.991 314.079 124.884 313.915C124.775 313.754 124.683 313.581 124.609 313.4C124.533 313.219 124.478 313.033 124.439 312.841C124.401 312.648 124.382 312.454 124.382 312.259C124.382 312.063 124.401 311.868 124.439 311.678C124.478 311.486 124.533 311.298 124.609 311.117C124.683 310.938 124.775 310.765 124.884 310.601C124.991 310.44 125.116 310.289 125.254 310.151C125.393 310.011 125.544 309.889 125.706 309.78C125.87 309.671 126.04 309.579 126.221 309.505C126.403 309.428 126.588 309.371 126.781 309.334C126.973 309.297 127.165 309.277 127.362 309.277C127.558 309.277 127.751 309.297 127.943 309.334C128.135 309.371 128.321 309.428 128.502 309.505C128.684 309.579 128.854 309.671 129.018 309.78C129.179 309.889 129.33 310.011 129.47 310.151C129.608 310.289 129.73 310.44 129.839 310.601C129.948 310.765 130.04 310.938 130.114 311.117C130.191 311.298 130.246 311.486 130.285 311.678C130.322 311.868 130.342 312.063 130.342 312.259Z" fill="#2492DD"/>
<path d="M140.037 307.263C140.037 307.458 140.018 307.652 139.978 307.845C139.941 308.037 139.884 308.222 139.81 308.404C139.736 308.585 139.642 308.758 139.535 308.919C139.426 309.083 139.301 309.234 139.163 309.372C139.026 309.509 138.875 309.634 138.711 309.743C138.549 309.852 138.377 309.944 138.198 310.018C138.016 310.093 137.829 310.149 137.638 310.189C137.446 310.226 137.252 310.245 137.055 310.245C136.861 310.245 136.666 310.226 136.474 310.189C136.282 310.149 136.096 310.093 135.915 310.018C135.736 309.944 135.563 309.852 135.401 309.743C135.237 309.634 135.087 309.509 134.949 309.372C134.811 309.234 134.687 309.083 134.578 308.919C134.468 308.758 134.377 308.585 134.302 308.404C134.228 308.222 134.171 308.037 134.134 307.845C134.095 307.652 134.075 307.458 134.075 307.263C134.075 307.067 134.095 306.872 134.134 306.682C134.171 306.49 134.228 306.302 134.302 306.121C134.377 305.942 134.468 305.769 134.578 305.605C134.687 305.444 134.811 305.293 134.949 305.155C135.087 305.015 135.237 304.893 135.401 304.784C135.563 304.674 135.736 304.583 135.915 304.508C136.096 304.432 136.282 304.377 136.474 304.338C136.666 304.301 136.861 304.281 137.055 304.281C137.252 304.281 137.446 304.301 137.638 304.338C137.829 304.377 138.016 304.432 138.198 304.508C138.377 304.583 138.549 304.674 138.711 304.784C138.875 304.893 139.026 305.015 139.163 305.155C139.301 305.293 139.426 305.444 139.535 305.605C139.642 305.769 139.736 305.942 139.81 306.121C139.884 306.302 139.941 306.49 139.978 306.682C140.018 306.872 140.037 307.067 140.037 307.263Z" fill="#2492DD"/>
<path d="M127.017 322.654C127.017 322.851 126.997 323.045 126.96 323.237C126.92 323.43 126.864 323.615 126.789 323.797C126.715 323.978 126.623 324.148 126.514 324.312C126.405 324.474 126.282 324.625 126.143 324.764C126.005 324.902 125.854 325.027 125.693 325.134C125.529 325.243 125.356 325.335 125.177 325.411C124.996 325.485 124.81 325.542 124.618 325.579C124.425 325.619 124.231 325.636 124.037 325.636C123.84 325.636 123.646 325.619 123.455 325.579C123.263 325.542 123.075 325.485 122.896 325.411C122.715 325.335 122.542 325.243 122.381 325.134C122.217 325.027 122.066 324.902 121.928 324.764C121.791 324.625 121.666 324.474 121.557 324.312C121.45 324.148 121.358 323.978 121.282 323.797C121.207 323.615 121.151 323.43 121.113 323.237C121.074 323.045 121.057 322.851 121.057 322.654C121.057 322.46 121.074 322.265 121.113 322.073C121.151 321.881 121.207 321.695 121.282 321.514C121.358 321.332 121.45 321.162 121.557 320.998C121.666 320.834 121.791 320.686 121.928 320.546C122.066 320.408 122.217 320.284 122.381 320.174C122.542 320.067 122.715 319.976 122.896 319.899C123.075 319.825 123.263 319.768 123.455 319.731C123.646 319.692 123.84 319.672 124.037 319.672C124.231 319.672 124.425 319.692 124.618 319.731C124.81 319.768 124.996 319.825 125.177 319.899C125.356 319.976 125.529 320.067 125.693 320.174C125.854 320.284 126.005 320.408 126.143 320.546C126.282 320.686 126.405 320.836 126.514 320.998C126.623 321.162 126.715 321.332 126.789 321.514C126.864 321.695 126.92 321.881 126.96 322.073C126.997 322.265 127.017 322.46 127.017 322.654Z" fill="#2492DD"/>
<path d="M142.396 335.681C142.396 335.878 142.377 336.072 142.34 336.265C142.302 336.455 142.246 336.643 142.169 336.824C142.095 337.003 142.003 337.176 141.894 337.34C141.787 337.501 141.662 337.652 141.525 337.79C141.385 337.929 141.234 338.052 141.072 338.161C140.909 338.27 140.738 338.362 140.557 338.436C140.376 338.513 140.19 338.57 139.998 338.607C139.805 338.646 139.613 338.663 139.416 338.663C139.22 338.663 139.028 338.646 138.835 338.607C138.643 338.57 138.457 338.513 138.276 338.436C138.095 338.362 137.924 338.27 137.76 338.161C137.599 338.052 137.448 337.929 137.308 337.79C137.171 337.652 137.048 337.501 136.939 337.34C136.83 337.176 136.738 337.003 136.664 336.824C136.587 336.643 136.533 336.455 136.493 336.265C136.456 336.072 136.437 335.878 136.437 335.681C136.437 335.487 136.456 335.292 136.493 335.1C136.533 334.908 136.587 334.722 136.664 334.541C136.738 334.36 136.83 334.187 136.939 334.025C137.048 333.861 137.171 333.711 137.308 333.573C137.448 333.435 137.599 333.311 137.76 333.202C137.924 333.092 138.095 333.001 138.276 332.926C138.457 332.852 138.643 332.795 138.835 332.756C139.028 332.719 139.22 332.699 139.416 332.699C139.613 332.699 139.805 332.719 139.998 332.756C140.19 332.795 140.376 332.852 140.557 332.926C140.738 333.001 140.909 333.092 141.072 333.202C141.234 333.311 141.385 333.435 141.525 333.573C141.662 333.711 141.787 333.861 141.894 334.025C142.003 334.187 142.095 334.36 142.169 334.541C142.246 334.722 142.302 334.908 142.34 335.1C142.377 335.292 142.396 335.487 142.396 335.681Z" fill="#2492DD"/>
<path d="M132.011 332.353C132.011 332.55 131.991 332.742 131.954 332.934C131.915 333.127 131.858 333.312 131.783 333.494C131.709 333.675 131.617 333.848 131.508 334.009C131.399 334.173 131.277 334.324 131.137 334.461C130.999 334.601 130.848 334.724 130.687 334.833C130.523 334.942 130.35 335.034 130.171 335.108C129.99 335.182 129.804 335.239 129.612 335.279C129.42 335.316 129.225 335.335 129.031 335.335C128.834 335.335 128.64 335.316 128.45 335.279C128.257 335.239 128.069 335.182 127.89 335.108C127.709 335.034 127.536 334.942 127.375 334.833C127.211 334.724 127.06 334.601 126.922 334.461C126.785 334.324 126.66 334.173 126.551 334.009C126.444 333.848 126.352 333.675 126.276 333.494C126.202 333.312 126.145 333.127 126.108 332.934C126.068 332.742 126.051 332.55 126.051 332.353C126.051 332.157 126.068 331.964 126.108 331.772C126.145 331.58 126.202 331.392 126.276 331.213C126.352 331.031 126.444 330.859 126.551 330.697C126.66 330.533 126.785 330.383 126.922 330.245C127.06 330.105 127.211 329.983 127.375 329.874C127.536 329.764 127.709 329.673 127.89 329.598C128.069 329.522 128.257 329.467 128.45 329.428C128.64 329.391 128.834 329.371 129.031 329.371C129.225 329.371 129.42 329.391 129.612 329.428C129.804 329.467 129.99 329.522 130.171 329.598C130.35 329.673 130.523 329.764 130.687 329.874C130.848 329.983 130.999 330.105 131.137 330.245C131.277 330.383 131.399 330.533 131.508 330.697C131.617 330.859 131.709 331.031 131.783 331.213C131.858 331.392 131.915 331.58 131.954 331.772C131.991 331.964 132.011 332.157 132.011 332.353Z" fill="#2492DD"/>
<path d="M152.093 330.685C152.093 330.88 152.073 331.074 152.036 331.266C151.997 331.459 151.94 331.644 151.866 331.826C151.791 332.007 151.7 332.18 151.59 332.341C151.481 332.505 151.359 332.656 151.219 332.793C151.081 332.931 150.931 333.056 150.767 333.165C150.605 333.274 150.433 333.366 150.253 333.44C150.072 333.514 149.886 333.571 149.694 333.611C149.502 333.648 149.307 333.667 149.113 333.667C148.916 333.667 148.722 333.648 148.53 333.611C148.34 333.571 148.152 333.514 147.973 333.44C147.791 333.366 147.619 333.274 147.457 333.165C147.293 333.056 147.142 332.931 147.005 332.793C146.867 332.656 146.743 332.505 146.633 332.341C146.526 332.18 146.435 332.007 146.358 331.826C146.284 331.644 146.227 331.459 146.19 331.266C146.151 331.074 146.131 330.88 146.131 330.685C146.131 330.489 146.151 330.294 146.19 330.102C146.227 329.912 146.284 329.724 146.358 329.543C146.435 329.363 146.526 329.191 146.633 329.027C146.743 328.865 146.867 328.715 147.005 328.575C147.142 328.437 147.293 328.315 147.457 328.206C147.619 328.096 147.791 328.005 147.973 327.93C148.152 327.854 148.34 327.797 148.53 327.76C148.722 327.721 148.916 327.703 149.113 327.703C149.307 327.703 149.502 327.721 149.694 327.76C149.886 327.797 150.072 327.854 150.253 327.93C150.433 328.005 150.605 328.096 150.767 328.206C150.931 328.315 151.081 328.437 151.219 328.575C151.359 328.715 151.481 328.865 151.59 329.027C151.7 329.191 151.791 329.363 151.866 329.543C151.94 329.724 151.997 329.912 152.036 330.102C152.073 330.294 152.093 330.489 152.093 330.685Z" fill="#2492DD"/>
<path d="M155.418 320.295C155.418 320.489 155.398 320.683 155.361 320.876C155.322 321.068 155.265 321.254 155.191 321.435C155.116 321.616 155.025 321.789 154.915 321.951C154.806 322.114 154.684 322.265 154.544 322.403C154.406 322.54 154.256 322.665 154.094 322.774C153.93 322.881 153.76 322.975 153.578 323.05C153.397 323.124 153.211 323.181 153.019 323.22C152.827 323.257 152.632 323.277 152.438 323.277C152.241 323.277 152.049 323.257 151.857 323.22C151.665 323.181 151.479 323.124 151.298 323.05C151.116 322.975 150.944 322.881 150.782 322.774C150.62 322.665 150.47 322.54 150.33 322.403C150.192 322.265 150.068 322.114 149.96 321.951C149.851 321.789 149.759 321.616 149.685 321.435C149.609 321.254 149.552 321.068 149.515 320.876C149.475 320.683 149.458 320.489 149.458 320.295C149.458 320.098 149.475 319.904 149.515 319.711C149.552 319.519 149.609 319.333 149.685 319.152C149.759 318.971 149.851 318.8 149.96 318.636C150.068 318.475 150.192 318.324 150.33 318.184C150.47 318.047 150.62 317.922 150.782 317.815C150.944 317.706 151.116 317.614 151.298 317.54C151.479 317.463 151.665 317.406 151.857 317.369C152.049 317.33 152.241 317.312 152.438 317.312C152.632 317.312 152.827 317.33 153.019 317.369C153.211 317.406 153.397 317.463 153.578 317.54C153.76 317.614 153.93 317.706 154.094 317.815C154.256 317.922 154.406 318.047 154.544 318.184C154.684 318.324 154.806 318.475 154.915 318.636C155.025 318.8 155.116 318.971 155.191 319.152C155.265 319.333 155.322 319.519 155.361 319.711C155.398 319.904 155.418 320.098 155.418 320.295Z" fill="#2492DD"/>
<path d="M37.4502 365.055C37.4436 365.055 37.4371 365.055 37.4305 365.055C36.1721 365.042 35.1628 364.009 35.1759 362.751C35.3987 341.541 45.6909 322.29 63.4154 309.933C78.2386 299.597 95.7468 296.143 109.119 300.926C110.306 301.349 110.922 302.654 110.498 303.84C110.076 305.026 108.759 305.638 107.586 305.221C95.5852 300.928 79.6565 304.168 66.0196 313.676C49.5207 325.178 39.9386 343.082 39.7332 362.799C39.7179 364.05 38.6998 365.058 37.4502 365.055Z" fill="#1B72C1"/>
<path d="M59.4151 379.73C62.8887 378.585 64.3721 374.615 62.4889 371.03C56.2429 359.137 48.1332 351.455 36.1392 355.412C24.2413 359.333 22.1877 370.368 24.2326 383.647C24.8487 387.649 28.3988 389.959 31.8725 388.814L59.4151 379.73Z" fill="#1B72C1"/>
<path d="M41.1033 400.046C39.8121 400.47 38.4204 399.769 37.9966 398.478L33.1182 383.665L37.7934 382.125L42.6697 396.935C43.0957 398.228 42.3944 399.62 41.1033 400.046Z" fill="#1B72C1"/>
<path d="M58.8757 394.187C57.5846 394.613 56.1929 393.911 55.7669 392.618L50.8906 377.808L55.5637 376.266L60.4421 391.078C60.8682 392.369 60.1669 393.761 58.8757 394.187Z" fill="#1B72C1"/>
<path d="M109.226 197.423C102.633 196.911 96.2777 195.572 90.2806 193.8C68.7526 187.423 51.6245 175.217 43.7683 173.852C43.493 173.806 43.2156 173.78 42.96 173.76C42.8005 173.732 42.6366 173.727 42.4684 173.745C42.2827 173.736 42.1189 173.732 41.9506 173.749C41.9463 173.771 41.9244 173.769 41.9201 173.791C41.6797 173.819 41.4591 173.876 41.2559 173.959C33.841 176.696 31.5536 188.376 53.8988 215.802C58.4932 221.443 63.1925 226.256 67.7585 230.344C79.0731 240.472 97.169 237.298 103.699 223.587C106.939 216.783 109.305 208.134 109.226 197.423Z" fill="#2492DD"/>
<path d="M109.154 197.833L109.226 197.423C102.633 196.911 96.2775 195.572 90.2805 193.8C68.7524 187.423 51.6244 175.217 43.7682 173.852C43.4929 173.806 43.2154 173.78 42.9598 173.76C42.8003 173.732 42.6365 173.727 42.4683 173.745C42.2826 173.736 42.1187 173.732 41.9505 173.749C41.9461 173.771 41.9243 173.769 41.9199 173.791C37.7122 179.322 52.7233 196.151 68.8158 204.315C82.0005 211.003 106.43 213.535 109.154 197.833Z" fill="#70CAF2"/>
<path d="M60.802 266.346L70.3623 150.974C88.1174 147.694 102.434 133.171 104.618 114.29C105.999 102.36 102.259 91.0254 95.1543 82.4614L86.6427 81.4761L83.3045 110.31L61.7458 120.692L42.4112 105.571L45.7494 76.7375L37.2378 75.75C28.3636 82.4614 22.135 92.6399 20.7542 104.568C18.5674 123.453 29.1872 140.865 45.7232 148.118L28.6782 262.623C27.2712 271.7 33.6855 280.133 42.8066 281.191C51.9278 282.248 60.0986 275.506 60.802 266.346ZM44.5631 269.854C41.6356 269.516 39.5361 266.866 39.877 263.936C40.2156 261.006 42.8634 258.907 45.791 259.245C48.7185 259.584 50.818 262.236 50.4793 265.166C50.1385 268.093 47.4906 270.195 44.5631 269.854Z" fill="#0F5784"/>
<path d="M42.44 170.488C42.44 170.488 52.8151 181.276 49.8483 191.232C47.7029 198.437 41.9266 199.763 38.1514 199.296C33.8148 195.156 28.8205 179.883 42.44 170.488Z" fill="#2492DD"/>
</svg>
