<svg width="500" height="388" viewBox="0 0 500 388" fill="none" xmlns="http://www.w3.org/2000/svg">
<mask id="mask0_2282_30729" style="mask-type:luminance" maskUnits="userSpaceOnUse" x="294" y="61" width="28" height="238">
<path d="M294.872 61.4844H321.892V298.569H294.872V61.4844Z" fill="white"/>
</mask>
<g mask="url(#mask0_2282_30729)">
<path d="M295.24 298.467H321.616V61.6367H295.24V298.467Z" fill="#A7A5A6"/>
</g>
<mask id="mask1_2282_30729" style="mask-type:luminance" maskUnits="userSpaceOnUse" x="316" y="77" width="6" height="222">
<path d="M316.377 77.4727H321.891V298.566H316.377V77.4727Z" fill="white"/>
</mask>
<g mask="url(#mask1_2282_30729)">
<path d="M319.92 298.467H316.706V297.558C317.662 298.14 318.759 298.467 319.92 298.467ZM316.706 279.997V222.246H321.615V279.088H319.92C318.759 279.088 317.662 279.417 316.706 279.997ZM321.615 164.584H316.706V146.495H321.615V164.584ZM321.615 88.8326H316.706V79.9582C318.414 79.4326 320.058 78.7455 321.615 77.9141V88.8326Z" fill="#9A9899"/>
</g>
<mask id="mask2_2282_30729" style="mask-type:luminance" maskUnits="userSpaceOnUse" x="75" y="61" width="28" height="238">
<path d="M75.4062 61.4844H102.426V298.569H75.4062V61.4844Z" fill="white"/>
</mask>
<g mask="url(#mask2_2282_30729)">
<path d="M75.6152 298.467H101.991V61.6367H75.6152V298.467Z" fill="#A7A5A6"/>
</g>
<mask id="mask3_2282_30729" style="mask-type:luminance" maskUnits="userSpaceOnUse" x="96" y="76" width="7" height="223">
<path d="M96.9121 76.9219H102.426V298.567H96.9121V76.9219Z" fill="white"/>
</mask>
<g mask="url(#mask3_2282_30729)">
<path d="M101.991 298.465H97.082V222.244H101.991V298.465ZM101.991 164.582H97.082V146.492H101.991V164.582ZM101.991 88.8302H97.082V79.5983C98.8031 78.9909 100.442 78.2219 101.991 77.3086V88.8302Z" fill="#9A9899"/>
</g>
<mask id="mask4_2282_30729" style="mask-type:luminance" maskUnits="userSpaceOnUse" x="52" y="88" width="289" height="59">
<path d="M52.0166 88.5039H340.088V146.954H52.0166V88.5039Z" fill="white"/>
</mask>
<g mask="url(#mask4_2282_30729)">
<path d="M51.999 146.494H339.944V88.8359H51.999V146.494Z" fill="#F4F4F4"/>
</g>
<path d="M84.831 88.832L61.0381 146.494H94.3129L118.102 88.832H84.831Z" fill="#F1511B"/>
<path d="M157.424 88.832L133.631 146.494H166.91L190.699 88.832H157.424Z" fill="#F1511B"/>
<path d="M230.011 88.832L206.223 146.494H239.502L263.29 88.832H230.011Z" fill="#F1511B"/>
<path d="M302.613 88.832L278.82 146.494H312.091L335.884 88.832H302.613Z" fill="#F1511B"/>
<mask id="mask5_2282_30729" style="mask-type:luminance" maskUnits="userSpaceOnUse" x="52" y="164" width="289" height="59">
<path d="M52.0166 164.047H340.088V222.497H52.0166V164.047Z" fill="white"/>
</mask>
<g mask="url(#mask5_2282_30729)">
<path d="M51.999 222.244H339.944V164.582H51.999V222.244Z" fill="#F4F4F4"/>
</g>
<path d="M84.831 164.586L61.0381 222.248H94.3129L118.102 164.586H84.831Z" fill="#F1511B"/>
<path d="M157.424 164.586L133.631 222.248H166.91L190.699 164.586H157.424Z" fill="#F1511B"/>
<path d="M230.011 164.586L206.223 222.248H239.502L263.29 164.586H230.011Z" fill="#F1511B"/>
<path d="M302.613 164.586L278.82 222.248H312.091L335.884 164.586H302.613Z" fill="#F1511B"/>
<mask id="mask6_2282_30729" style="mask-type:luminance" maskUnits="userSpaceOnUse" x="59" y="24" width="58" height="58">
<path d="M59.416 24.9609H116.212V81.335H59.416V24.9609Z" fill="white"/>
</mask>
<g mask="url(#mask6_2282_30729)">
<path d="M115.794 53.1293C115.794 68.6315 103.23 81.1957 87.7319 81.1957C72.2275 81.1957 59.6611 68.6315 59.6611 53.1293C59.6611 37.6249 72.2275 25.0586 87.7319 25.0586C103.23 25.0586 115.794 37.6249 115.794 53.1293Z" fill="#BDBCBC"/>
</g>
<path d="M109.229 53.1304C109.229 65.0053 99.6045 74.6314 87.7317 74.6314C75.859 74.6314 66.2285 65.0053 66.2285 53.1304C66.2285 41.2576 75.859 31.625 87.7317 31.625C99.6045 31.625 109.229 41.2576 109.229 53.1304Z" fill="#FCD328"/>
<path d="M87.7314 74.6319C87.7142 74.6319 87.7013 74.6319 87.6927 74.6319C87.6883 74.6319 87.6819 74.6319 87.6776 74.6319C87.669 74.6319 87.6603 74.6319 87.6517 74.6319C87.6474 74.6319 87.6431 74.6319 87.6388 74.6319C87.6302 74.6319 87.6216 74.6319 87.613 74.6319C87.6086 74.6319 87.6043 74.6319 87.6 74.6319C87.5914 74.6319 87.5785 74.6319 87.5699 74.6319C87.5656 74.6319 87.5656 74.6319 87.5613 74.6319C80.5759 74.5802 74.4026 71.1791 70.5146 65.975C74.101 68.6546 78.5361 70.2593 83.3567 70.2593C95.2294 70.2593 104.856 60.631 104.856 48.7583C104.856 43.9355 103.251 39.5004 100.569 35.9141C105.777 39.7998 109.176 45.9753 109.228 52.9628C109.228 52.9671 109.228 52.9671 109.228 52.9714C109.228 52.9801 109.228 52.993 109.228 53.0016C109.228 53.0059 109.228 53.0102 109.228 53.0145C109.228 53.0231 109.228 53.0318 109.228 53.0404C109.228 53.0447 109.228 53.049 109.228 53.0533C109.228 53.0619 109.228 53.0705 109.228 53.0791C109.228 53.0835 109.228 53.0878 109.228 53.0921C109.228 53.105 109.228 53.1179 109.228 53.1308C109.228 65.0057 99.6042 74.6319 87.7314 74.6319Z" fill="#E6C124"/>
<mask id="mask7_2282_30729" style="mask-type:luminance" maskUnits="userSpaceOnUse" x="52" y="88" width="289" height="59">
<path d="M52.0166 88.5039H340.088V146.954H52.0166V88.5039Z" fill="white"/>
</mask>
<g mask="url(#mask7_2282_30729)">
<path d="M339.944 146.494H312.091L315.242 138.86H332.476V97.0926L335.884 88.832H339.944V146.494ZM278.82 146.494H239.501L242.65 138.86H281.972L278.82 146.494ZM206.222 146.494H166.91L170.057 138.86H209.376L206.222 146.494ZM133.631 146.494H94.3119L97.4654 138.86H136.782L133.631 146.494ZM61.0371 146.494H51.999V138.86H64.1863L61.0371 146.494Z" fill="#DFDFDF"/>
</g>
<path d="M94.3129 146.493H61.0381L64.1872 138.859H97.4663L94.3129 146.493Z" fill="#DD4B18"/>
<path d="M166.91 146.493H133.631L136.782 138.859H170.057L166.91 146.493Z" fill="#DD4B18"/>
<path d="M239.502 146.493H206.223L209.376 138.859H242.651L239.502 146.493Z" fill="#DD4B18"/>
<path d="M312.091 146.494H278.82L281.972 138.86H315.242L312.091 146.494ZM332.476 97.0926V88.832H335.884L332.476 97.0926Z" fill="#DD4B18"/>
<mask id="mask8_2282_30729" style="mask-type:luminance" maskUnits="userSpaceOnUse" x="52" y="164" width="289" height="59">
<path d="M52.0166 164.047H340.088V222.497H52.0166V164.047Z" fill="white"/>
</mask>
<g mask="url(#mask8_2282_30729)">
<path d="M339.944 222.244H312.091L315.242 214.613H332.476V172.843L335.884 164.582H339.944V222.244ZM278.82 222.244H239.501L242.65 214.613H281.967L278.82 222.244ZM206.222 222.244H166.91L170.057 214.613H209.371L206.222 222.244ZM133.631 222.244H94.3119L97.4611 214.613H136.778L133.631 222.244ZM61.0371 222.244H51.999V214.613H64.1863L61.0371 222.244Z" fill="#DFDFDF"/>
</g>
<path d="M94.3129 222.245H61.0381L64.1872 214.613H97.462L94.3129 222.245Z" fill="#DD4B18"/>
<path d="M166.91 222.245H133.631L136.778 214.613H170.057L166.91 222.245Z" fill="#DD4B18"/>
<path d="M239.502 222.245H206.223L209.372 214.613H242.651L239.502 222.245Z" fill="#DD4B18"/>
<path d="M312.091 222.248H278.82L281.967 214.617H315.242L312.091 222.248ZM332.476 172.846V164.586H335.884L332.476 172.846Z" fill="#DD4B18"/>
<mask id="mask9_2282_30729" style="mask-type:luminance" maskUnits="userSpaceOnUse" x="279" y="24" width="58" height="58">
<path d="M279.983 24.9609H336.78V81.335H279.983V24.9609Z" fill="white"/>
</mask>
<g mask="url(#mask9_2282_30729)">
<path d="M336.491 53.1293C336.491 68.6315 323.929 81.1957 308.425 81.1957C292.927 81.1957 280.358 68.6315 280.358 53.1293C280.358 37.6249 292.927 25.0586 308.425 25.0586C323.929 25.0586 336.491 37.6249 336.491 53.1293Z" fill="#BDBCBC"/>
</g>
<path d="M329.928 53.1304C329.928 65.0053 320.298 74.6314 308.425 74.6314C296.548 74.6314 286.924 65.0053 286.924 53.1304C286.924 41.2576 296.548 31.625 308.425 31.625C320.298 31.625 329.928 41.2576 329.928 53.1304Z" fill="#FCD328"/>
<path d="M308.425 74.6319C308.412 74.6319 308.399 74.6319 308.386 74.6319C308.382 74.6319 308.377 74.6319 308.377 74.6319C308.369 74.6319 308.356 74.6319 308.347 74.6319C308.343 74.6319 308.338 74.6319 308.334 74.6319C308.326 74.6319 308.317 74.6319 308.308 74.6319C308.304 74.6319 308.3 74.6319 308.3 74.6319C308.287 74.6319 308.274 74.6319 308.265 74.6319H308.261C301.273 74.5802 295.1 71.1791 291.21 65.975C294.796 68.6546 299.231 70.2593 304.052 70.2593C315.925 70.2593 325.553 60.631 325.553 48.7583C325.553 43.9355 323.946 39.5004 321.267 35.9141C326.475 39.7998 329.872 45.9753 329.923 52.9628C329.923 52.9671 329.923 52.9671 329.923 52.9714C329.923 52.9801 329.923 52.993 329.923 53.0016C329.923 53.0059 329.923 53.0102 329.923 53.0145C329.923 53.0231 329.923 53.0318 329.923 53.0404C329.923 53.0447 329.923 53.049 329.923 53.0533C329.923 53.0619 329.923 53.0705 329.923 53.0791C329.923 53.0835 329.923 53.0878 329.923 53.0921C329.923 53.105 329.928 53.1179 329.928 53.1308C329.928 65.0057 320.297 74.6319 308.425 74.6319Z" fill="#E6C124"/>
<path d="M404.824 238.908H344.252L363.207 151.336H385.869L404.824 238.908Z" fill="#F1511B"/>
<path d="M417.102 288.054H331.979L358.613 164.992H390.461L417.102 288.054Z" fill="white"/>
<path d="M403.064 223.211H346.014L342.356 240.085H406.715L403.064 223.211Z" fill="white"/>
<path d="M390.461 164.992H358.612L355.659 178.638H393.416L390.461 164.992Z" fill="white"/>
<path d="M331.979 288.051H417.102L416.367 284.66H332.711L331.979 288.051Z" fill="white"/>
<path d="M393.416 178.637H355.659L346.014 223.211H403.064L393.416 178.637Z" fill="#F1511B"/>
<path d="M339.283 254.297L332.711 284.659H416.367L409.793 254.31L339.283 254.297Z" fill="#F1511B"/>
<mask id="mask10_2282_30729" style="mask-type:luminance" maskUnits="userSpaceOnUse" x="313" y="278" width="123" height="21">
<path d="M313.068 278.742H435.975V298.567H313.068V278.742Z" fill="white"/>
</mask>
<g mask="url(#mask10_2282_30729)">
<path d="M435.99 290.711C435.99 294.995 432.925 298.465 429.155 298.465H319.921C316.147 298.465 313.086 294.995 313.086 290.711V286.838C313.086 282.556 316.147 279.086 319.921 279.086H429.155C432.925 279.086 435.99 282.556 435.99 286.838V290.711Z" fill="#F1511B"/>
</g>
<path d="M403.064 223.212L393.416 178.638L390.461 164.992L395.208 186.911L403.064 223.212Z" fill="#E9E9E9"/>
<path d="M388.827 164.992H378.5L376.527 151.336H385.869L388.827 164.992Z" fill="#DD4B18"/>
<path d="M409.793 254.313L391.405 254.309L389.348 240.086H406.715L407.902 245.566L409.793 254.313Z" fill="#E9E9E9"/>
<path d="M406.716 240.085H389.348L386.914 223.211H403.065L406.716 240.085Z" fill="#E9E9E9"/>
<path d="M393.416 178.638H380.471L378.5 164.992H390.461L393.416 178.638Z" fill="#E9E9E9"/>
<path d="M403.065 223.211H386.914L380.472 178.637H393.417L403.065 223.211Z" fill="#DD4B18"/>
<path d="M415.156 279.088H394.986L391.404 254.309L409.793 254.313L410.758 258.765L414.932 278.043L415.156 279.088Z" fill="#DD4B18"/>
<mask id="mask11_2282_30729" style="mask-type:luminance" maskUnits="userSpaceOnUse" x="394" y="278" width="42" height="21">
<path d="M394.679 278.742H435.975V298.567H394.679V278.742Z" fill="white"/>
</mask>
<g mask="url(#mask11_2282_30729)">
<path d="M429.156 298.465H398.281L400.299 282.313L394.987 279.086H429.156C432.925 279.086 435.991 282.556 435.991 286.838V290.711C435.991 294.995 432.925 298.465 429.156 298.465Z" fill="#DD4B18"/>
</g>
</svg>
