<?xml version="1.0" encoding="UTF-8"?>
<svg version="1.1" xmlns="http://www.w3.org/2000/svg" width="500" height="500">
<path d="M0 0 C0.74446381 0.00359528 1.48892761 0.00719055 2.25595093 0.01089478 C3.0363826 0.01074875 3.81681427 0.01060272 4.62089539 0.01045227 C7.21273534 0.01115158 9.80450432 0.01894481 12.39633179 0.02676392 C14.18852194 0.02862803 15.9807126 0.03005196 17.77290344 0.03105164 C22.49938351 0.03487733 27.22583305 0.04470805 31.95230103 0.05575562 C36.77153104 0.06596863 41.59076596 0.07054902 46.41000366 0.07559204 C55.87290773 0.08633027 65.3357891 0.10340731 74.79867554 0.12442017 C77.1295635 4.16339104 79.4602826 8.20245933 81.79086304 12.24160767 C82.1352026 12.83838192 82.47954216 13.43515617 82.83431625 14.0500145 C86.68327786 20.72091459 90.53113601 27.39243255 94.36898804 34.06973267 C94.97484741 35.12289673 95.58070679 36.17606079 96.20492554 37.26113892 C97.39085749 39.32304333 98.57568581 41.38558276 99.75961304 43.44863892 C102.34117461 47.93269912 104.93759567 52.38409371 107.72836304 56.74160767 C109.79867554 60.12442017 109.79867554 60.12442017 109.79867554 62.12442017 C110.45867554 62.12442017 111.11867554 62.12442017 111.79867554 62.12442017 C112.16219116 61.12861938 112.16219116 61.12861938 112.53305054 60.11270142 C114.12349006 56.35749698 116.05471579 52.86575079 118.04867554 49.31192017 C118.47978638 48.54001343 118.91089722 47.76810669 119.35507202 46.97280884 C124.72793136 37.4014908 130.15123583 27.83260983 135.8835907 18.4715271 C137.25846144 16.06858427 138.39067931 13.83662321 139.48298645 11.31925964 C144.0589527 1.44376176 144.0589527 1.44376176 148.62841988 -0.75671196 C153.94586588 -2.1863596 159.39940155 -1.97877801 164.86117554 -1.86776733 C166.6204021 -1.87788948 168.37960812 -1.8924621 170.13876343 -1.91125488 C173.81553021 -1.93329738 177.48680886 -1.90151898 181.16293335 -1.83114624 C185.85762482 -1.74561419 190.53946823 -1.79487087 195.23368835 -1.8847332 C198.86365187 -1.93916829 202.49060808 -1.92159566 206.1206665 -1.88281631 C207.8492997 -1.87287019 209.5782137 -1.88488178 211.30651855 -1.92000961 C224.36278494 -2.1271961 224.36278494 -2.1271961 228.37970161 1.58584213 C231.1944414 5.15903195 233.13470795 9.06523351 234.93874454 13.22165489 C236.27560479 16.17971929 237.9381981 18.8962894 239.60726929 21.67910767 C240.81807225 23.7852077 242.02769549 25.89198638 243.23617554 27.99942017 C247.36884596 35.18662851 251.51013859 42.36668115 255.73617554 49.49942017 C260.44331616 57.45362074 265.0144765 65.48491077 269.59039307 73.51498413 C274.28132425 81.74499108 279.01156563 89.94981565 283.79867554 98.12442017 C290.87592469 110.21581266 297.82521702 122.37897392 304.76205444 134.55117798 C307.79250106 139.86866166 310.82649455 145.18411652 313.86193848 150.49874878 C314.85417335 152.23715227 315.84486269 153.97643762 316.83554077 155.71572876 C320.22080127 161.65094207 323.63618086 167.56496622 327.10336304 173.45254517 C328.14594447 175.23070493 329.18785162 177.00925803 330.22955322 178.78793335 C331.21007953 180.45505101 332.20065785 182.11624367 333.1914978 183.7772522 C333.78245239 184.786427 334.37340698 185.79560181 334.98226929 186.83535767 C335.5036145 187.71498169 336.02495972 188.59460571 336.56210327 189.50088501 C338.36670574 193.3295638 339.3950922 196.4473909 337.94100952 200.53604126 C337.48025024 201.31544067 337.01949097 202.09484009 336.54476929 202.89785767 C336.02696899 203.79295044 335.5091687 204.68804321 334.97567749 205.61026001 C334.11462402 207.04039429 334.11462402 207.04039429 333.23617554 208.49942017 C332.6498938 209.50311646 332.06361206 210.50681274 331.45956421 211.54092407 C330.21667253 213.66533079 328.96656378 215.78552919 327.70980835 217.90176392 C325.84342026 221.04896918 324.00060047 224.20867679 322.16586304 227.37442017 C315.94842702 238.09471822 315.94842702 238.09471822 313.74465942 241.69755554 C312.28920585 244.26059955 311.07634491 246.69856467 309.89555359 249.38066101 C304.60725661 260.70418705 304.60725661 260.70418705 299.91816902 263.0753479 C294.60663816 264.50279999 289.19623704 264.07876454 283.75961304 263.78457642 C282.02524673 263.75281679 280.29072653 263.72864254 278.55615234 263.71168518 C274.01778476 263.64715209 269.48885928 263.4806119 264.95419312 263.29171753 C260.3164145 263.11692023 255.67708864 263.03998808 251.03695679 262.95449829 C241.95340825 262.77286558 232.87683036 262.48327854 223.79867554 262.12442017 C223.44283386 261.49314209 223.08699219 260.86186401 222.72036743 260.2114563 C213.22771202 243.36454127 213.22771202 243.36454127 203.54867554 226.62442017 C202.972948 225.63812622 202.39722046 224.65183228 201.80404663 223.63565063 C199.20354067 219.18957744 196.58681018 214.75514429 193.91586304 210.35098267 C193.48950562 209.64779907 193.06314819 208.94461548 192.62387085 208.22012329 C191.84903955 206.94786165 191.07003345 205.67812883 190.28598022 204.41152954 C187.79867554 200.34052071 187.79867554 200.34052071 187.79867554 198.12442017 C187.13867554 198.12442017 186.47867554 198.12442017 185.79867554 198.12442017 C185.53473999 198.83042358 185.27080444 199.536427 184.99887085 200.26382446 C183.72794145 203.29301074 182.23104761 206.04522212 180.59555054 208.89395142 C179.95134155 210.01906128 179.30713257 211.14417114 178.6434021 212.30337524 C177.94528269 213.51462766 177.24703768 214.72580769 176.54867554 215.93692017 C175.83201352 217.18510173 175.11554445 218.43339409 174.39926147 219.68179321 C168.08343917 230.67732549 161.69966152 241.63338898 155.2840271 252.57095337 C153.43763996 255.74507617 151.62053941 258.9361584 149.79867554 262.12442017 C124.05867554 262.12442017 98.31867554 262.12442017 71.79867554 262.12442017 C56.79867554 236.12442017 56.79867554 236.12442017 52.26351929 228.24942017 C51.66217163 227.20527954 51.06082397 226.16113892 50.44125366 225.08535767 C49.26875166 223.04926027 48.0969137 221.01278038 46.92562866 218.97598267 C43.65176875 213.29413618 40.32470486 207.6578151 36.86727905 202.08535767 C35.79867554 200.12442017 35.79867554 200.12442017 35.79867554 198.12442017 C35.13867554 198.12442017 34.47867554 198.12442017 33.79867554 198.12442017 C33.52950317 198.84089722 33.26033081 199.55737427 32.98300171 200.29556274 C31.78912679 203.1472281 30.40412011 205.71528247 28.84945679 208.38613892 C28.25568237 209.41054077 27.66190796 210.43494263 27.05014038 211.49038696 C26.41028198 212.58649292 25.77042358 213.68259888 25.11117554 214.81192017 C24.10213347 216.54851135 23.09309873 218.28510685 22.08450317 220.0219574 C21.38673414 221.22320765 20.68852687 222.42420344 19.98989868 223.62495422 C17.52432187 227.8647396 15.08019545 232.11636361 12.64633179 236.37442017 C11.97348823 237.54935743 11.30055648 238.72424419 10.62753296 239.89907837 C9.35300612 242.12531986 8.08091675 244.35295911 6.81161499 246.58218384 C6.22726685 247.60030151 5.6429187 248.61841919 5.04086304 249.66738892 C4.28071899 250.99806396 4.28071899 250.99806396 3.50521851 252.35562134 C2.94205933 253.26932495 2.37890015 254.18302856 1.79867554 255.12442017 C1.56233398 255.73610046 1.32599243 256.34778076 1.08248901 256.97799683 C-0.08711752 259.40066483 -0.98663427 260.55886445 -3.20132446 262.12442017 C-8.84476464 263.31201262 -14.4670164 263.30697962 -20.21694946 263.33535767 C-21.91461482 263.36041011 -23.61226723 263.38635368 -25.30990601 263.41314697 C-28.86759679 263.45953713 -32.42410911 263.47653837 -35.98208618 263.47647095 C-40.52580679 263.48134303 -45.06097584 263.58713176 -49.60254288 263.71907616 C-53.11009419 263.8047761 -56.6156094 263.82178622 -60.12410736 263.82014847 C-61.79723316 263.83020517 -63.47040689 263.86453555 -65.1424942 263.92432785 C-77.8221909 264.33743627 -77.8221909 264.33743627 -81.76342201 260.67139244 C-84.57296287 257.08719467 -86.52555133 253.16845977 -88.34446239 249.01181602 C-89.64135574 246.15517058 -91.25563025 243.50254354 -92.86929321 240.81582642 C-94.68034637 237.66867582 -96.48529152 234.51813073 -98.28701782 231.3656311 C-101.56920026 225.6372977 -104.89780986 219.95076026 -108.34976196 214.32363892 C-109.00694214 213.23945679 -109.66412231 212.15527466 -110.34121704 211.03823853 C-111.5978879 208.97027691 -112.87057552 206.91194168 -114.16104126 204.86489868 C-118.27649933 198.0432241 -118.27649933 198.0432241 -117.95523071 194.11660767 C-117.08704712 192.63547485 -117.08704712 192.63547485 -116.20132446 191.12442017 C-115.79116089 190.38127563 -115.38099731 189.6381311 -114.95840454 188.87246704 C-113.38126734 186.04957968 -111.73462838 183.27537051 -110.07632446 180.49942017 C-108.81340711 178.36080461 -107.55174126 176.22144962 -106.29116821 174.08145142 C-105.62713989 172.95561646 -104.96311157 171.82978149 -104.27896118 170.66983032 C-100.67733279 164.54055631 -97.16142231 158.36181728 -93.63882446 152.18692017 C-92.96615713 151.0096618 -92.29346882 149.83241543 -91.62075806 148.65518188 C-90.98605591 147.54288208 -90.35135376 146.43058228 -89.69741821 145.28457642 C-89.09784302 144.23415161 -88.49826782 143.18372681 -87.88052368 142.10147095 C-85.94593031 138.6716321 -84.07160313 135.21161815 -82.22891235 131.7315979 C-81.20132446 130.12442017 -81.20132446 130.12442017 -79.20132446 129.12442017 C-76.89344572 129.03227385 -74.58281597 129.00692619 -72.27310181 129.01089478 C-71.20464775 129.01067574 -71.20464775 129.01067574 -70.11460876 129.01045227 C-67.7554624 129.01115006 -65.39639457 129.0189362 -63.03726196 129.02676392 C-61.40344282 129.02862857 -59.76962312 129.03005225 -58.13580322 129.03105164 C-53.83184266 129.03487307 -49.52791575 129.04470019 -45.22396851 129.05575562 C-40.83361262 129.06597775 -36.44325131 129.07055098 -32.05288696 129.07559204 C-23.43568401 129.08632278 -14.81850842 129.10339474 -6.20132446 129.12442017 C-7.73275071 124.29456992 -9.76115556 120.18630323 -12.38882446 115.87442017 C-13.28859044 114.37261112 -14.1869317 112.86994793 -15.08413696 111.36660767 C-15.57817017 110.53999634 -16.07220337 109.71338501 -16.58120728 108.86172485 C-20.35615314 102.4836819 -24.02302593 96.04176465 -27.70376587 89.60903931 C-30.47103189 84.78814819 -33.24654854 79.98950965 -36.23257446 75.30020142 C-36.66755249 74.61135864 -37.10253052 73.92251587 -37.5506897 73.21279907 C-38.67020395 71.45861554 -39.81175259 69.71854639 -40.95523071 67.97988892 C-42.20132446 65.12442017 -42.20132446 65.12442017 -41.68179321 62.72598267 C-41.19323853 61.86746704 -40.70468384 61.00895142 -40.20132446 60.12442017 C-39.90749878 59.5669812 -39.6136731 59.00954224 -39.3109436 58.43521118 C-38.2224992 56.37548223 -37.09122607 54.34361384 -35.95132446 52.31192017 C-35.51948853 51.53856323 -35.08765259 50.7652063 -34.64273071 49.96841431 C-29.18097861 40.2372779 -23.5333387 30.61331455 -17.88345337 20.9906311 C-16.29220328 18.27927029 -14.70510428 15.5655272 -13.11929321 12.85098267 C-12.20929963 11.29619995 -11.29915401 9.7415062 -10.38882446 8.18692017 C-9.97439087 7.47721069 -9.55995728 6.76750122 -9.13296509 6.0362854 C-5.59525261 0.01140328 -5.59525261 0.01140328 0 0 Z " fill="#A067CC" transform="translate(139.20132446289063,118.87557983398438)"/>
<path d="M0 0 C1.75922657 -0.01012215 3.51843258 -0.02469477 5.27758789 -0.04348755 C8.95435468 -0.06553005 12.62563332 -0.03375164 16.30175781 0.03662109 C20.99644928 0.12215315 25.67829269 0.07289647 30.37251282 -0.01696587 C34.00247634 -0.07140095 37.62943255 -0.05382832 41.25949097 -0.01504898 C42.98812416 -0.00510286 44.71703816 -0.01711444 46.44534302 -0.05224228 C59.5016094 -0.25942877 59.5016094 -0.25942877 63.51852608 3.45360947 C66.33326586 7.02679928 68.27353242 10.93300085 70.07756901 15.08942223 C71.41442925 18.04748662 73.07702256 20.76405673 74.74609375 23.546875 C75.95689672 25.65297504 77.16651996 27.75975371 78.375 29.8671875 C82.50767042 37.05439584 86.64896306 44.23444848 90.875 51.3671875 C95.58214062 59.32138808 100.15330096 67.35267811 104.72921753 75.38275146 C109.42014871 83.61275841 114.15039009 91.81758299 118.9375 99.9921875 C126.01474915 112.08357999 132.96404148 124.24674126 139.90087891 136.41894531 C142.93132553 141.736429 145.96531901 147.05188385 149.00076294 152.36651611 C149.99299781 154.10491961 150.98368715 155.84420495 151.97436523 157.58349609 C155.35962573 163.5187094 158.77500533 169.43273356 162.2421875 175.3203125 C163.28476893 177.09847227 164.32667609 178.87702537 165.36837769 180.65570068 C166.34890399 182.32281835 167.33948231 183.98401101 168.33032227 185.64501953 C168.92127686 186.65419434 169.51223145 187.66336914 170.12109375 188.703125 C170.64243896 189.58274902 171.16378418 190.46237305 171.70092773 191.36865234 C173.5055302 195.19733114 174.53391666 198.31515823 173.07983398 202.40380859 C172.61907471 203.18320801 172.15831543 203.96260742 171.68359375 204.765625 C171.16579346 205.66071777 170.64799316 206.55581055 170.11450195 207.47802734 C169.25344849 208.90816162 169.25344849 208.90816162 168.375 210.3671875 C167.78871826 211.37088379 167.20243652 212.37458008 166.59838867 213.40869141 C165.35549699 215.53309812 164.10538824 217.65329653 162.84863281 219.76953125 C160.98224472 222.91673651 159.13942493 226.07644413 157.3046875 229.2421875 C151.08725148 239.96248555 151.08725148 239.96248555 148.88348389 243.56532288 C147.42803032 246.12836689 146.21516938 248.566332 145.03437805 251.24842834 C139.74608107 262.57195438 139.74608107 262.57195438 135.05699348 264.94311523 C129.74546263 266.37056732 124.3350615 265.94653187 118.8984375 265.65234375 C117.1640712 265.62058412 115.42955099 265.59640988 113.69497681 265.57945251 C109.15660922 265.51491943 104.62768374 265.34837924 100.09301758 265.15948486 C95.45523897 264.98468756 90.8159131 264.90775542 86.17578125 264.82226562 C77.09223271 264.64063291 68.01565483 264.35104588 58.9375 263.9921875 C58.58165833 263.36090942 58.22581665 262.72963135 57.85919189 262.07922363 C48.36656266 245.23229358 48.36656266 245.23229358 38.6875 228.4921875 C38.10959717 227.50226807 37.53169434 226.51234863 36.9362793 225.49243164 C34.3723025 221.1091349 31.79432903 216.73605607 29.16015625 212.39453125 C28.74733398 211.71390625 28.33451172 211.03328125 27.90917969 210.33203125 C26.84717359 208.58916026 25.7774845 206.85097687 24.70703125 205.11328125 C22.84085256 201.82172104 21.42004251 198.471624 19.9375 194.9921875 C18.5689999 192.30718253 17.10227392 189.68111841 15.625 187.0546875 C15.19550049 186.28600342 14.76600098 185.51731934 14.32348633 184.7253418 C10.08470952 177.17887055 5.70931659 169.71262736 1.33178711 162.24609375 C-2.78255078 155.21870889 -6.82084872 148.15240348 -10.8125 141.0546875 C-14.8446376 133.88817652 -18.92923428 126.76041077 -23.11865234 119.68481445 C-27.59135358 112.12186707 -31.99252333 104.51747146 -36.35449219 96.89013672 C-39.43128021 91.5140117 -42.54396365 86.17409537 -45.796875 80.90234375 C-46.37002441 79.95520508 -46.94317383 79.00806641 -47.53369141 78.03222656 C-48.60858016 76.25946938 -49.70366555 74.49874751 -50.82177734 72.75292969 C-52.16845461 70.50465176 -53.28364474 68.49425637 -54.0625 65.9921875 C-53.13671875 62.40625 -53.13671875 62.40625 -51.0625 58.9921875 C-50.39497944 57.73559003 -49.73242185 56.47634665 -49.07421875 55.21484375 C-48.30379247 53.82572401 -47.52878364 52.43913914 -46.75 51.0546875 C-46.32340088 50.2918042 -45.89680176 49.5289209 -45.45727539 48.74291992 C-40.09727385 39.20612129 -34.69092704 29.66931549 -28.9776001 20.33932495 C-27.60272459 17.93637102 -26.47050065 15.70440111 -25.37818909 13.18702698 C-19.58099613 0.67597168 -13.09524159 -0.26616108 0 0 Z " fill="#1936B1" transform="translate(304.0625,117.0078125)"/>
<path d="M0 0 C4.10466563 3.54794087 6.29488297 7.78784042 8.8125 12.5 C13.84041538 21.79476145 19.17079532 30.89612128 24.53515625 40 C25.7109375 42 26.88671875 44 28.0625 46 C28.94131836 47.485 28.94131836 47.485 29.83789062 49 C33.86268855 55.86136472 37.5286199 62.84310394 41 70 C40.34 70 39.68 70 39 70 C38.59624146 71.07471558 38.59624146 71.07471558 38.18432617 72.17114258 C36.99045126 75.02280793 35.60544457 77.5908623 34.05078125 80.26171875 C33.45700684 81.28612061 32.86323242 82.31052246 32.25146484 83.3659668 C31.61160645 84.46207275 30.97174805 85.55817871 30.3125 86.6875 C29.30345793 88.42409119 28.2944232 90.16068668 27.28582764 91.89753723 C26.5880586 93.09878748 25.88985134 94.29978328 25.19122314 95.50053406 C22.72564633 99.74031944 20.28151991 103.99194344 17.84765625 108.25 C17.17481269 109.42493726 16.50188094 110.59982402 15.82885742 111.7746582 C14.55433058 114.0008997 13.28224121 116.22853894 12.01293945 118.45776367 C11.42859131 119.47588135 10.84424316 120.49399902 10.2421875 121.54296875 C9.48204346 122.8736438 9.48204346 122.8736438 8.70654297 124.23120117 C8.14338379 125.14490479 7.58022461 126.0586084 7 127 C6.76365845 127.6116803 6.52731689 128.2233606 6.28381348 128.85357666 C5.11420694 131.27624466 4.21469019 132.43444428 2 134 C-3.64344018 135.18759246 -9.26569193 135.18255946 -15.015625 135.2109375 C-16.71329035 135.23598995 -18.41094277 135.26193351 -20.10858154 135.28872681 C-23.66627233 135.33511696 -27.22278465 135.3521182 -30.78076172 135.35205078 C-35.32448232 135.35692286 -39.85965137 135.4627116 -44.40121841 135.59465599 C-47.90876973 135.68035594 -51.41428494 135.69736605 -54.9227829 135.6957283 C-56.5959087 135.70578501 -58.26908243 135.74011538 -59.94116974 135.79990768 C-72.62086644 136.2130161 -72.62086644 136.2130161 -76.56209755 132.54697227 C-79.37163841 128.9627745 -81.32422686 125.04403961 -83.14313793 120.88739586 C-84.44003128 118.03075041 -86.05430579 115.37812338 -87.66796875 112.69140625 C-89.4790219 109.54425565 -91.28396706 106.39371056 -93.08569336 103.24121094 C-96.3678758 97.51287754 -99.6964854 91.8263401 -103.1484375 86.19921875 C-104.13420776 84.57294556 -104.13420776 84.57294556 -105.13989258 82.91381836 C-106.39656344 80.84585675 -107.66925106 78.78752152 -108.9597168 76.74047852 C-113.07517487 69.91880394 -113.07517487 69.91880394 -112.75390625 65.9921875 C-112.17511719 65.00476563 -111.59632812 64.01734375 -111 63 C-110.58983643 62.25685547 -110.17967285 61.51371094 -109.75708008 60.74804688 C-108.17994288 57.92515951 -106.53330392 55.15095035 -104.875 52.375 C-103.61208264 50.23638444 -102.3504168 48.09702946 -101.08984375 45.95703125 C-100.42581543 44.83119629 -99.76178711 43.70536133 -99.07763672 42.54541016 C-95.47600833 36.41613614 -91.96009784 30.23739712 -88.4375 24.0625 C-87.76483267 22.88524164 -87.09214436 21.70799526 -86.41943359 20.53076172 C-85.78473145 19.41846191 -85.1500293 18.30616211 -84.49609375 17.16015625 C-83.89651855 16.10973145 -83.29694336 15.05930664 -82.67919922 13.97705078 C-80.74460585 10.54721194 -78.87027867 7.08719798 -77.02758789 3.60717773 C-76 2 -76 2 -74 1 C-71.69729474 0.9130106 -69.39197525 0.89298472 -67.08764648 0.90234375 C-66.37695007 0.90380402 -65.66625366 0.90526428 -64.934021 0.9067688 C-63.38927455 0.91057767 -61.84453249 0.91669725 -60.29980278 0.92483521 C-57.85880028 0.93756411 -55.4178519 0.94410526 -52.9768219 0.94897461 C-47.79702369 0.96041952 -42.61726996 0.97966842 -37.4375 1 C-31.43376552 1.0235484 -25.43005636 1.04395321 -19.4262867 1.05593872 C-17.01482402 1.06244943 -14.60343831 1.07495674 -12.19200134 1.08764648 C-10.72232125 1.09127706 -9.25264044 1.09462904 -7.78295898 1.09765625 C-5.85008278 1.10551147 -5.85008278 1.10551147 -3.87815857 1.11352539 C-1.10393888 1.33016824 -1.10393888 1.33016824 0 0 Z " fill="#87C7EC" transform="translate(134,247)"/>
<path d="M0 0 C0.74446381 0.00359528 1.48892761 0.00719055 2.25595093 0.01089478 C3.0363826 0.01074875 3.81681427 0.01060272 4.62089539 0.01045227 C7.21273534 0.01115158 9.80450432 0.01894481 12.39633179 0.02676392 C14.18852194 0.02862803 15.9807126 0.03005196 17.77290344 0.03105164 C22.49938351 0.03487733 27.22583305 0.04470805 31.95230103 0.05575562 C36.77153104 0.06596863 41.59076596 0.07054902 46.41000366 0.07559204 C55.87290773 0.08633027 65.3357891 0.10340731 74.79867554 0.12442017 C74.79867554 0.78442017 74.79867554 1.44442017 74.79867554 2.12442017 C48.72867554 2.12442017 22.65867554 2.12442017 -4.20132446 2.12442017 C-4.53132446 3.77442017 -4.86132446 5.42442017 -5.20132446 7.12442017 C-5.53132446 7.12442017 -5.86132446 7.12442017 -6.20132446 7.12442017 C-6.24386803 5.12487271 -6.24213229 3.1240038 -6.20132446 1.12442017 C-4.48145241 -0.59545189 -2.29255418 0.00467229 0 0 Z " fill="#5667B4" transform="translate(291.2013244628906,118.87557983398438)"/>
<path d="M0 0 C1.06845406 -0.00021904 1.06845406 -0.00021904 2.15849304 -0.0004425 C4.51763941 0.00025528 6.87670724 0.00804142 9.23583984 0.01586914 C10.86965898 0.0177338 12.50347868 0.01915747 14.13729858 0.02015686 C18.44125914 0.0239783 22.74518605 0.03380541 27.0491333 0.04486084 C31.43948918 0.05508297 35.82985049 0.0596562 40.22021484 0.06469727 C48.8374178 0.075428 57.45459339 0.09249996 66.07177734 0.11352539 C66.56677734 1.59852539 66.56677734 1.59852539 67.07177734 3.11352539 C43.31177734 3.11352539 19.55177734 3.11352539 -4.92822266 3.11352539 C-5.25822266 3.77352539 -5.58822266 4.43352539 -5.92822266 5.11352539 C-6.58822266 4.78352539 -7.24822266 4.45352539 -7.92822266 4.11352539 C-7.92822266 4.77352539 -7.92822266 5.43352539 -7.92822266 6.11352539 C-8.91822266 6.44352539 -9.90822266 6.77352539 -10.92822266 7.11352539 C-10.32638517 5.09307097 -9.6551617 3.092415 -8.92822266 1.11352539 C-5.96414707 -0.3685124 -3.307431 -0.00568287 0 0 Z " fill="#B6E2F1" transform="translate(66.92822265625,247.886474609375)"/>
<path d="M0 0 C0.66 0 1.32 0 2 0 C6.97592262 7.7479764 6.97592262 7.7479764 7.0625 12.25 C5.84894371 15.39096922 4.26039714 17.52085475 2 20 C1.01 19.01 0.02 18.02 -1 17 C-0.34 17 0.32 17 1 17 C1.16947579 15.58366664 1.33545507 14.16691467 1.5 12.75 C1.5928125 11.96109375 1.685625 11.1721875 1.78125 10.359375 C2.06154619 7.73109603 2.06154619 7.73109603 2 4 C1.34 4 0.68 4 0 4 C0 2.68 0 1.36 0 0 Z " fill="#4056B0" transform="translate(471,304)"/>
<path d="M0 0 C3.74438677 4.3191066 6.39648495 9.01256597 9.125 14 C9.56714844 14.7940625 10.00929688 15.588125 10.46484375 16.40625 C12.55650947 20.19778907 14.53310879 23.91248292 16 28 C15.34 28 14.68 28 14 28 C14 27.01 14 26.02 14 25 C13.34 25 12.68 25 12 25 C11.67 23.35 11.34 21.7 11 20 C10.01 19.67 9.02 19.34 8 19 C6.65675939 16.75931043 5.49628535 14.5970973 4.375 12.25 C4.06304687 11.62867188 3.75109375 11.00734375 3.4296875 10.3671875 C1.75297197 6.94148422 0.53410584 3.78204677 0 0 Z " fill="#8870D8" transform="translate(276,228)"/>
<path d="M0 0 C1.32 0.66 2.64 1.32 4 2 C2.42986223 7.96652354 -0.75029782 12.82909025 -4 18 C-5.5 16.625 -5.5 16.625 -7 15 C-7 14.34 -7 13.68 -7 13 C-5.68 13 -4.36 13 -3 13 C-3 12.01 -3 11.02 -3 10 C-2.34 10 -1.68 10 -1 10 C-0.67 6.7 -0.34 3.4 0 0 Z " fill="#455CB3" transform="translate(459,339)"/>
<path d="M0 0 C4.2271882 1.50971007 5.62113044 4.35240001 8 8 C8.66 8 9.32 8 10 8 C10.66 9.32 11.32 10.64 12 12 C10.68 12.99 9.36 13.98 8 15 C6.66121428 12.8782637 5.32884524 10.75294812 4 8.625 C3.6184375 8.02171875 3.236875 7.4184375 2.84375 6.796875 C0 2.2265625 0 2.2265625 0 0 Z " fill="#9DCFEC" transform="translate(34,337)"/>
<path d="M0 0 C0.66 0 1.32 0 2 0 C0.66511872 3.59391114 -0.96022723 6.75490696 -3 10 C-4.32 9.01 -5.64 8.02 -7 7 C-6.67 5.68 -6.34 4.36 -6 3 C-4.02 2.67 -2.04 2.34 0 2 C0 1.34 0 0.68 0 0 Z " fill="#AC7FCF" transform="translate(312,336)"/>
<path d="M0 0 C0.99 0.33 1.98 0.66 3 1 C3 2.32 3 3.64 3 5 C3.93585938 5.12181641 3.93585938 5.12181641 4.890625 5.24609375 C7 6 7 6 8.046875 7.84765625 C8.27890625 8.57855469 8.5109375 9.30945313 8.75 10.0625 C8.99234375 10.79597656 9.2346875 11.52945313 9.484375 12.28515625 C9.65453125 12.85105469 9.8246875 13.41695312 10 14 C9.34 14.66 8.68 15.32 8 16 C6.66141476 13.71125827 5.32898986 11.41930344 4 9.125 C3.6184375 8.47402344 3.236875 7.82304687 2.84375 7.15234375 C0 2.2265625 0 2.2265625 0 0 Z " fill="#AD83C6" transform="translate(125,230)"/>
<path d="M0 0 C0.93423645 3.01031744 1.04449911 3.86650268 0 7 C-0.66 7 -1.32 7 -2 7 C-2 7.99 -2 8.98 -2 10 C-1.34 10 -0.68 10 0 10 C-1.39195915 12.7839183 -3.15575779 12.97898997 -6 14 C-5.57202798 8.29370646 -3.15654048 4.58921384 0 0 Z " fill="#A576C6" transform="translate(110,160)"/>
<path d="M0 0 C1.23925303 3.48738512 0.7983396 5.24703368 -0.75 8.5625 C-1.09546875 9.32691406 -1.4409375 10.09132812 -1.796875 10.87890625 C-3.00009965 13.00017568 -4.12117216 14.45243918 -6 16 C-6.66 16 -7.32 16 -8 16 C-6.42986223 10.03347646 -3.24970218 5.17090975 0 0 Z " fill="#4E5CB5" transform="translate(284,122)"/>
<path d="M0 0 C3.6578722 4.19977919 6.79365864 8.87201939 9 14 C8.67 14.66 8.34 15.32 8 16 C5.11753676 14.55876838 4.41203771 12.49055187 2.875 9.6875 C2.33617187 8.72199219 1.79734375 7.75648438 1.2421875 6.76171875 C0 4 0 4 0 0 Z " fill="#8F74DB" transform="translate(304,277)"/>
<path d="M0 0 C3.6607519 1.22025063 3.92339441 2.126491 5.6875 5.4375 C6.34298828 6.64212891 6.34298828 6.64212891 7.01171875 7.87109375 C8 10 8 10 8 12 C4.86192049 10.91790362 4.03092212 10.05268214 2.3125 7.125 C1.29915475 4.71227322 0.49159115 2.55627397 0 0 Z " fill="#4F62B3" transform="translate(441,252)"/>
<path d="M0 0 C7 8.44827586 7 8.44827586 7 12 C4.625 11.375 4.625 11.375 2 10 C0.35002837 6.38577643 0 4.00165194 0 0 Z " fill="#485CB5" transform="translate(385,153)"/>
<path d="M0 0 C1.05607181 2.74578671 0.96271597 4.18642013 0.375 7.125 C-1 10 -1 10 -3.625 11.375 C-4.40875 11.58125 -5.1925 11.7875 -6 12 C-4.43358249 7.69235185 -2.31663844 3.93828536 0 0 Z " fill="#4E61B4" transform="translate(268,150)"/>
<path d="M0 0 C0.99 0.33 1.98 0.66 3 1 C3.33 2.65 3.66 4.3 4 6 C4.99 6.33 5.98 6.66 7 7 C7.33 9.31 7.66 11.62 8 14 C0 4.57142857 0 4.57142857 0 0 Z " fill="#B1D7EB" transform="translate(51,366)"/>
<path d="M0 0 C0.99 0 1.98 0 3 0 C1.43358249 4.30764815 -0.68336156 8.06171464 -3 12 C-3.33 12 -3.66 12 -4 12 C-3.53898164 7.29761275 -2.96823597 3.76737643 0 0 Z " fill="#ACD6EA" transform="translate(156,341)"/>
<path d="M0 0 C0.66 0 1.32 0 2 0 C4.03435531 3.72965139 5 5.66905042 5 10 C6.65 10.33 8.3 10.66 10 11 C9.01 11.495 9.01 11.495 8 12 C7.34786708 14.02463255 7.34786708 14.02463255 7 16 C3.84479914 11.04182722 1.16062022 5.80310112 0 0 Z " fill="#4354B0" transform="translate(323,308)"/>
<path d="M0 0 C3.34726719 1.11575573 3.62079748 1.51344622 5.25 4.4375 C5.8275 5.613125 6.405 6.78875 7 8 C6.67 8.66 6.34 9.32 6 10 C5.01 10 4.02 10 3 10 C0 3.375 0 3.375 0 0 Z " fill="#4B5EB3" transform="translate(449,266)"/>
<path d="M0 0 C3.28465896 2.79196011 5.01321958 6.23196817 7 10 C7 10.66 7 11.32 7 12 C6.01 12 5.02 12 4 12 C4 11.01 4 10.02 4 9 C3.34 9 2.68 9 2 9 C0.50178941 5.62902617 0 3.79557881 0 0 Z " fill="#5565B8" transform="translate(371,129)"/>
<path d="M0 0 C0.6875 1.6875 0.6875 1.6875 1 4 C-0.3125 6.75 -0.3125 6.75 -2 9 C-2.66 9 -3.32 9 -4 9 C-4 9.99 -4 10.98 -4 12 C-4.66 12 -5.32 12 -6 12 C-4.68139111 7.38486888 -2.78644563 3.90102388 0 0 Z " fill="#B0D7ED" transform="translate(31,297)"/>
<path d="M0 0 C0.99 0 1.98 0 3 0 C5.1875 2.5 5.1875 2.5 7 5 C6.67 5.66 6.34 6.32 6 7 C3.625 6.8125 3.625 6.8125 1 6 C-0.3125 3.4375 -0.3125 3.4375 -1 1 C-0.67 0.67 -0.34 0.34 0 0 Z " fill="#3A52BA" transform="translate(418,215)"/>
<path d="M0 0 C2.74277578 3.19990508 4.6302836 6.00499382 6 10 C4.68 10 3.36 10 2 10 C-0.09350689 6.5980513 -0.17942163 3.94727588 0 0 Z " fill="#AC85CA" transform="translate(235,157)"/>
<path d="M0 0 C3.83734649 1.2791155 4.48165136 2.78875494 6.34765625 6.2109375 C7 8 7 8 6.25 10.4375 C5.8375 10.953125 5.425 11.46875 5 12 C4.67 12 4.34 12 4 12 C3.566875 10.4221875 3.566875 10.4221875 3.125 8.8125 C2.22774807 5.77181289 1.23576581 2.91287656 0 0 Z " fill="#4458B1" transform="translate(462,289)"/>
<path d="M0 0 C4.42857143 5.14285714 4.42857143 5.14285714 5 9 C2.97954558 8.39816251 0.97888961 7.72693904 -1 7 C-1.33 6.34 -1.66 5.68 -2 5 C-1.0625 2.375 -1.0625 2.375 0 0 Z " fill="#936CD5" transform="translate(292,256)"/>
<path d="M0 0 C0.99 0.33 1.98 0.66 3 1 C3.33 2.65 3.66 4.3 4 6 C4.66 6 5.32 6 6 6 C6.33 7.98 6.66 9.96 7 12 C3.71534104 9.20803989 1.98678042 5.76803183 0 2 C0 1.34 0 0.68 0 0 Z " fill="#B793D0" transform="translate(204,367)"/>
<path d="M0 0 C2.48982535 2.27745789 4.10368997 4.62335238 5.75 7.5625 C6.19859375 8.34753906 6.6471875 9.13257813 7.109375 9.94140625 C7.40328125 10.62074219 7.6971875 11.30007813 8 12 C7.67 12.66 7.34 13.32 7 14 C6.67 13.01 6.34 12.02 6 11 C5.34 11 4.68 11 4 11 C3.32880451 9.5437455 2.66318193 8.08492133 2 6.625 C1.62875 5.81289063 1.2575 5.00078125 0.875 4.1640625 C0 2 0 2 0 0 Z " fill="#9FB5EE" transform="translate(154,281)"/>
<path d="M0 0 C0.66 0 1.32 0 2 0 C1.43454163 3.95820859 0.19097652 6.6659053 -2 10 C-2.66 9.67 -3.32 9.34 -4 9 C-3.67 7.35 -3.34 5.7 -3 4 C-2.01 4 -1.02 4 0 4 C0 2.68 0 1.36 0 0 Z " fill="#4D5EB1" transform="translate(447,364)"/>
<path d="M0 0 C2.61724095 2.36797991 4.32861729 4.89600354 6 8 C6 8.66 6 9.32 6 10 C5.34 10 4.68 10 4 10 C4 9.34 4 8.68 4 8 C3.01 8 2.02 8 1 8 C0 2.25 0 2.25 0 0 Z " fill="#9E7EDE" transform="translate(321,307)"/>
<path d="M0 0 C2.72675159 2.40689803 4.11966596 4.92471023 5.6875 8.1875 C6.12449219 9.08855469 6.56148437 9.98960937 7.01171875 10.91796875 C7.33785156 11.60503906 7.66398438 12.29210937 8 13 C7.01 13.33 6.02 13.66 5 14 C4.731875 13.13375 4.46375 12.2675 4.1875 11.375 C3.06567182 7.96207798 3.06567182 7.96207798 1.375 4.75 C0 2 0 2 0 0 Z " fill="#A1B6EE" transform="translate(166,302)"/>
<path d="M0 0 C3.28465896 2.79196011 5.01321958 6.23196817 7 10 C7 10.66 7 11.32 7 12 C6.34 12 5.68 12 5 12 C4.67 10.35 4.34 8.7 4 7 C3.34 7 2.68 7 2 7 C0 4 0 4 0 0 Z " fill="#9AB5ED" transform="translate(144,264)"/>
<path d="M0 0 C2.61500768 2.36595933 4.38999603 4.86049226 6 8 C5.67 8.66 5.34 9.32 5 10 C3.0625 9.5 3.0625 9.5 1 8 C0.31209578 5.30341548 0.18053536 2.7982981 0 0 Z " fill="#5466B9" transform="translate(400,179)"/>
<path d="M0 0 C0.99 1.32 1.98 2.64 3 4 C1.75 5.5625 1.75 5.5625 0 7 C-2.1875 6.6875 -2.1875 6.6875 -4 6 C-4 5.34 -4 4.68 -4 4 C-3.01 4 -2.02 4 -1 4 C-1.33 3.01 -1.66 2.02 -2 1 C-1.34 0.67 -0.68 0.34 0 0 Z " fill="#314BB3" transform="translate(366,120)"/>
<path d="M0 0 C1.98 0.495 1.98 0.495 4 1 C2.92598892 3.91517292 2.22189824 5.77810176 0 8 C-1.125 2.25 -1.125 2.25 0 0 Z " fill="#B186D3" transform="translate(292,366)"/>
<path d="M0 0 C3.29148243 1.13499394 3.9959869 1.99283376 5.75 5.125 C6.1625 6.07375 6.575 7.0225 7 8 C6.34 8.66 5.68 9.32 5 10 C4.16121545 8.71186658 3.32913217 7.41936744 2.5 6.125 C2.0359375 5.40570313 1.571875 4.68640625 1.09375 3.9453125 C0 2 0 2 0 0 Z " fill="#B0D7ED" transform="translate(34,337)"/>
<path d="M0 0 C0.66 0 1.32 0 2 0 C2.99 2.64 3.98 5.28 5 8 C4.01 8 3.02 8 2 8 C0.25 5.6875 0.25 5.6875 -1 3 C-0.67 2.01 -0.34 1.02 0 0 Z " fill="#4F64B8" transform="translate(339,335)"/>
<path d="M0 0 C0.99 0.33 1.98 0.66 3 1 C4.0625 3.375 4.0625 3.375 5 6 C5.99 7.485 5.99 7.485 7 9 C6.67 9.99 6.34 10.98 6 12 C4.99466333 10.37829621 3.99588093 8.75252763 3 7.125 C2.443125 6.22007812 1.88625 5.31515625 1.3125 4.3828125 C0 2 0 2 0 0 Z " fill="#2937A6" transform="translate(263,204)"/>
<path d="M0 0 C3 1 3 1 4.75 3.4375 C5.36875 4.7059375 5.36875 4.7059375 6 6 C5.67 6.66 5.34 7.32 5 8 C4.01 8 3.02 8 2 8 C0.74335022 5.09399739 0 3.20395416 0 0 Z " fill="#5064B6" transform="translate(411,200)"/>
<path d="M0 0 C0.99 1.32 1.98 2.64 3 4 C2.67 4.66 2.34 5.32 2 6 C-0.5625 6.625 -0.5625 6.625 -3 7 C-1.125 2.25 -1.125 2.25 0 0 Z " fill="#485CB7" transform="translate(258,167)"/>
<path d="M0 0 C0.66 0.66 1.32 1.32 2 2 C0.68 4.31 -0.64 6.62 -2 9 C-2.33 9 -2.66 9 -3 9 C-3.36923077 3.46153846 -3.36923077 3.46153846 -1.5 1.125 C-1.005 0.75375 -0.51 0.3825 0 0 Z " fill="#B189CD" transform="translate(304,349)"/>
<path d="M0 0 C3 1 3 1 4.6875 4.0625 C5.120625 5.031875 5.55375 6.00125 6 7 C5.34 7.66 4.68 8.32 4 9 C0 2.25 0 2.25 0 0 Z " fill="#5469B5" transform="translate(333,327)"/>
<path d="M0 0 C1.65 0.33 3.3 0.66 5 1 C4.01 2.485 4.01 2.485 3 4 C2.34 3.67 1.68 3.34 1 3 C1 3.66 1 4.32 1 5 C0.01 5.33 -0.98 5.66 -2 6 C-1.34 4.02 -0.68 2.04 0 0 Z " fill="#A8D2E8" transform="translate(58,249)"/>
<path d="M0 0 C0.99 0.33 1.98 0.66 3 1 C4.6875 4.5625 4.6875 4.5625 6 8 C5.01 8.495 5.01 8.495 4 9 C0 2.25 0 2.25 0 0 Z " fill="#B390CC" transform="translate(192,346)"/>
<path d="M0 0 C0.66 0.66 1.32 1.32 2 2 C0.68 4.31 -0.64 6.62 -2 9 C-2.93423645 5.98968256 -3.04449911 5.13349732 -2 2 C-1.34 2 -0.68 2 0 2 C0 1.34 0 0.68 0 0 Z " fill="#AF8BCE" transform="translate(319,323)"/>
<path d="M0 0 C0.99 0.33 1.98 0.66 3 1 C3 2.32 3 3.64 3 5 C3.99 5 4.98 5 6 5 C5.34 6.32 4.68 7.64 4 9 C0 2.25 0 2.25 0 0 Z " fill="#B594D1" transform="translate(125,230)"/>
<path d="M0 0 C4 4.75 4 4.75 4 7 C2.35 6.67 0.7 6.34 -1 6 C-0.67 4.02 -0.34 2.04 0 0 Z " fill="#AD86CF" transform="translate(227,143)"/>
<path d="M0 0 C3.73639216 1.24546405 4.18756513 2.63404953 6 6 C5.34 6.66 4.68 7.32 4 8 C0 2.25 0 2.25 0 0 Z " fill="#5C69BA" transform="translate(359,372)"/>
<path d="M0 0 C0.99 0.33 1.98 0.66 3 1 C2.34 2.65 1.68 4.3 1 6 C-0.32 5.34 -1.64 4.68 -3 4 C-2.34 3.67 -1.68 3.34 -1 3 C-0.67 2.01 -0.34 1.02 0 0 Z " fill="#3852B7" transform="translate(473,318)"/>
<path d="M0 0 C3.48331435 3.01887244 4.79157144 5.56909529 6 10 C4.5 8.625 4.5 8.625 3 7 C3 6.34 3 5.68 3 5 C2.01 4.67 1.02 4.34 0 4 C0 2.68 0 1.36 0 0 Z " fill="#AABDEE" transform="translate(134,247)"/>
<path d="M0 0 C0.66 0.99 1.32 1.98 2 3 C0.35 4.65 -1.3 6.3 -3 8 C-3 4.42424104 -1.91159393 2.94704065 0 0 Z " fill="#5E6EBA" transform="translate(275,138)"/>
<path d="M0 0 C0.6875 1.6875 0.6875 1.6875 1 4 C-0.3125 6.75 -0.3125 6.75 -2 9 C-2.66 9 -3.32 9 -4 9 C-2.94124926 5.59687262 -1.99097846 2.98646769 0 0 Z " fill="#5F71BB" transform="translate(284,122)"/>
<path d="M0 0 C0.93423645 3.01031744 1.04449911 3.86650268 0 7 C-2.0625 7.6875 -2.0625 7.6875 -4 8 C-2.87548273 5.0280615 -1.77706209 2.66559313 0 0 Z " fill="#BA95D6" transform="translate(110,160)"/>
</svg>
